<svg width="181" height="181" viewBox="0 0 181 181" fill="none" xmlns="http://www.w3.org/2000/svg">
<path d="M90.0587 97.9632C85.8466 97.9632 82.4282 94.5342 82.4282 90.3327C82.4282 86.1311 85.8466 82.7021 90.0587 82.7021C94.2709 82.7021 97.6893 86.1205 97.6893 90.3327C97.6893 94.5448 94.2603 97.9632 90.0587 97.9632ZM90.0587 82.9667C85.9948 82.9667 82.6928 86.2687 82.6928 90.3327C82.6928 94.3966 85.9948 97.6986 90.0587 97.6986C94.1227 97.6986 97.4247 94.3966 97.4247 90.3327C97.4247 86.2687 94.1227 82.9667 90.0587 82.9667Z" fill="black"/>
<path d="M97.5517 90.1953H82.5552V90.4599H97.5517V90.1953Z" fill="black"/>
<path d="M90.1857 82.8291H89.9211V97.8256H90.1857V82.8291Z" fill="black"/>
<path d="M97.6893 97.9632H82.4282V82.7021H97.6893V97.9632ZM82.6928 97.6986H97.4247V82.9667H82.6928V97.6986Z" fill="black"/>
<path d="M57.1554 75.6856C57.7481 76.7016 58.1185 77.6224 58.309 78.4055C58.4783 79.1887 58.4466 79.9083 58.1397 80.5328C57.8328 81.1572 57.2824 81.7816 56.4146 82.4378C55.7902 82.8928 55.2187 83.2209 54.6895 83.3902C54.1604 83.549 53.663 83.6866 53.1338 83.8136C52.6364 83.9406 52.1072 84.1417 51.5463 84.438C51.0171 84.7026 50.4245 85.2211 49.7895 85.9408C49.5567 85.5492 49.3238 85.1894 49.1651 84.9248C48.9957 84.6602 48.8052 84.438 48.5724 84.2052C48.3396 84.0041 48.1067 83.8136 47.7787 83.676C47.4823 83.5172 47.0802 83.3479 46.5828 83.2209C47.0802 82.9563 47.5141 82.7658 47.8739 82.5965C48.202 82.4378 48.4983 82.2367 48.8052 82.0356C49.0698 81.8345 49.3344 81.644 49.6307 81.3794C49.8953 81.1148 50.2234 80.7868 50.6573 80.3634C50.7949 80.755 51.0171 81.1148 51.2817 81.4429C51.5463 81.771 51.8744 81.9721 52.2448 82.1308C52.6046 82.2578 53.0068 82.3319 53.3984 82.2896C53.79 82.2473 54.2239 82.0568 54.6578 81.7287C55.2822 81.2418 55.6526 80.7444 55.7161 80.2576C55.7796 79.7708 55.6526 79.2099 55.2822 78.5854C54.9118 77.961 54.3932 77.2096 53.663 76.3841C52.9327 75.5586 52.1072 74.5532 51.2182 73.3362C49.2709 73.7912 47.3765 73.9606 45.5244 73.7595C43.6724 73.5584 42.0849 72.8387 40.8255 71.3994C40.0635 70.5422 39.5661 69.5685 39.3332 68.3832C39.1004 67.1979 39.1639 65.9596 39.5343 64.6473C39.8941 63.335 40.5926 62.0227 41.5875 60.7103C42.5823 59.4298 43.8734 58.255 45.4609 57.239C47.8739 55.7362 50.1916 54.9107 52.3083 54.6779C54.3932 54.4768 56.4781 54.6144 58.4889 55.133C58.7535 54.3498 59.0498 53.6936 59.3779 53.101C59.706 52.5401 60.1082 51.9897 60.5738 51.4923C61.0395 51.0055 61.6321 50.4763 62.3306 50.0212C63.0291 49.5344 63.9181 49.0052 65.0082 48.4443C65.4104 48.8042 65.6009 49.0053 66.003 49.3651C64.8071 50.2223 63.9499 51.0055 63.3572 51.6616C62.7963 52.3496 62.4259 52.974 62.2671 53.5666C62.1084 54.1593 62.0978 54.752 62.2354 55.3658C62.4047 55.9584 62.5952 56.6464 62.8598 57.366C64.278 61.1337 65.7384 64.9436 67.1566 68.7113C67.4212 69.3992 67.781 69.9283 68.2149 70.3517C68.6806 70.7433 69.2733 71.0396 70.0352 71.2089C70.067 71.2089 70.1305 71.1772 70.2046 71.1137C70.2998 71.0184 70.4057 70.9126 70.5009 70.7856C70.5962 70.6586 70.7337 70.521 70.8607 70.394C70.9983 70.267 71.1253 70.1612 71.2947 70.0977C71.6545 70.2988 71.8556 70.394 72.226 70.5845C71.2629 71.8333 70.8078 72.4895 69.94 73.7595C69.9082 73.823 69.8447 73.9182 69.7707 74.0558C69.6754 74.1828 69.6013 74.3521 69.4743 74.5109C69.3791 74.6696 69.2732 74.8072 69.2097 74.966C69.1145 75.093 69.0722 75.1988 69.0404 75.2305C68.1832 74.9342 67.4529 74.5744 66.892 74.1828C66.3311 73.7912 65.8337 73.3256 65.4315 72.8705C65.0294 72.4154 64.6695 71.8862 64.405 71.3677C64.1086 70.8385 63.844 70.2882 63.5477 69.6955C63.2514 69.0711 63.1138 68.743 62.8492 68.1186C61.4946 68.9759 60.2352 69.7273 59.0075 70.3834C57.6846 71.1031 56.3617 71.6957 55.0388 72.1826C55.8008 73.4314 56.531 74.6379 57.1237 75.6539L57.1554 75.6856ZM48.329 68.4044C47.9692 67.3566 47.7998 66.3089 47.8316 65.2294C47.8951 64.1499 48.1279 62.9963 48.5618 61.8216C48.9957 60.6362 49.5884 59.2604 50.3821 57.7576C48.6253 58.0222 47.0061 58.6466 45.5879 59.5568C44.4979 60.2764 43.5983 61.1019 42.9104 62.0121C42.2119 62.9328 41.7145 63.8853 41.4499 64.8272C41.1853 65.7797 41.1218 66.6581 41.2488 67.5154C41.3864 68.3726 41.7145 69.124 42.2436 69.7484C43.2702 70.9655 44.4555 71.6534 45.8525 71.8757C47.2072 72.1085 48.6677 72.0767 50.1493 71.8439C49.3238 70.5633 48.6888 69.4203 48.329 68.4044ZM51.1124 60.9961C50.9431 62.0756 50.9748 63.1551 51.2076 64.2134C51.4087 65.2611 51.7685 66.3406 52.2977 67.4307C52.7951 68.5102 53.4195 69.632 54.1498 70.7433C55.007 70.4469 55.8008 70.1188 56.5945 69.7908C57.3565 69.4309 58.0868 69.1028 58.7429 68.743C60.0023 68.0869 61.0606 67.4624 61.9814 66.7745C61.3146 65.367 60.9866 64.6473 60.3622 63.2291C59.5049 61.3982 58.4148 59.9801 56.9543 59.0699C55.4939 58.1809 53.9487 57.6624 52.3189 57.5989C51.6204 58.8159 51.2288 59.9272 51.0912 61.0067L51.1124 60.9961Z" fill="#13130A"/>
<path d="M80.4704 45.5341C80.5656 45.6293 80.6715 45.7352 80.7667 45.8304C80.862 45.9257 80.936 46.0315 81.0313 46.1268C81.1265 46.222 81.1689 46.2855 81.1689 46.2855C79.5814 46.9734 78.4278 47.6613 77.6976 48.254C76.9356 48.8784 76.4699 49.4711 76.2053 50.0849C75.9725 50.6775 75.8772 51.3337 75.9407 51.9581C76.0042 52.6143 76.1101 53.3339 76.2053 54.1912C77.0308 58.9748 77.8563 63.8008 78.6818 68.5844C79.2427 68.7855 79.5073 68.8807 80.0682 69.1136C80.6609 68.6585 80.9572 68.4574 81.5922 68.0341L82.3542 68.7855C81.5605 69.4099 80.8937 69.9708 80.3645 70.4894C79.9306 70.9127 79.6343 71.2726 79.4332 71.5054C79.2321 71.77 78.9993 72.0346 78.703 72.3626C76.8509 71.7065 75.8561 71.4101 73.877 70.9233C74.4062 70.1402 74.6708 69.738 75.2634 68.9866C74.2686 64.7215 73.242 60.4671 72.2578 56.202C72.0884 55.4506 71.9297 54.8262 71.7604 54.297C71.591 53.8102 71.3582 53.3445 71.0301 52.9212C70.702 52.4979 70.2364 52.138 69.6437 51.7782C69.051 51.4184 68.2573 50.995 67.199 50.5294C67.5588 50.1378 67.7599 49.9367 68.1303 49.5769C68.8288 49.8415 69.358 50.032 69.813 50.2013C70.247 50.3601 70.6068 50.5294 70.8714 50.6881C71.136 50.8151 71.3688 50.9527 71.5699 51.0797C71.7709 51.175 71.972 51.2808 72.1625 51.376C72.6282 50.5929 73.0515 49.9367 73.4854 49.3758C73.9193 48.8149 74.4168 48.2963 74.9777 47.8307C75.5386 47.365 76.2371 46.9417 77.0626 46.5183C77.8881 46.1268 78.9464 45.7352 80.2375 45.333C80.301 45.3648 80.3751 45.4283 80.4704 45.5341Z" fill="#13130A"/>
<path d="M83.2432 68.1822C83.9417 67.4943 84.3015 67.1344 85.0317 66.4783C84.8307 63.0705 84.6296 59.6309 84.4391 56.2125C86.5557 55.3553 88.4395 54.7097 90.1329 54.2123C91.7839 53.7255 93.0115 53.3974 93.71 53.1963C94.7366 53.4291 95.6997 53.8842 96.5252 54.5721C97.3506 55.26 98.0174 56.0749 98.5148 56.9957C99.0122 57.9164 99.3403 58.9324 99.5096 60.0119C99.679 61.0914 99.6472 62.1391 99.4779 63.1551C99.245 64.3405 98.9805 65.3141 98.6841 66.0761C98.3561 66.8275 97.8586 67.4519 97.2236 68.0128C96.5569 68.5738 95.6997 69.0606 94.6731 69.5898C93.6148 70.0766 92.2918 70.7327 90.7044 71.5582C87.8892 69.9813 86.4076 69.3252 83.2643 68.1822H83.2432ZM88.4078 66.7746C90.1964 67.6636 91.0536 68.1504 92.7046 69.1664C93.2973 68.5103 93.7629 67.8858 94.091 67.2614C94.4508 66.6688 94.7154 66.0761 94.8847 65.5575C95.0858 64.9966 95.2128 64.5098 95.2869 63.9806C95.3504 63.4938 95.4245 62.9964 95.488 62.5413C95.5515 61.8534 95.5832 61.1972 95.5197 60.5093C95.4562 59.8214 95.2552 59.1652 94.9271 58.5091C94.599 57.8529 94.1016 57.2285 93.4031 56.6782C92.7046 56.1173 91.7839 55.6304 90.5562 55.2071C89.6672 55.6304 89.2333 55.8633 88.376 56.2866C88.4078 59.832 88.4078 63.3033 88.4078 66.7746Z" fill="#13130A"/>
<path d="M105.108 73.1674C104.611 72.5112 104.177 71.7598 103.88 70.8073C103.584 69.8866 103.415 68.8071 103.383 67.6323C103.351 66.4153 103.521 65.103 103.88 63.6319C104.145 62.5841 104.441 61.7586 104.769 61.1448C105.098 60.5204 105.563 60.0336 106.23 59.6737C106.897 59.3139 107.722 59.0493 108.812 58.8906C109.871 58.7318 111.331 58.5942 113.141 58.5625C114.495 58.5625 115.162 58.5942 116.517 58.6577C116.517 58.7212 116.58 58.9223 116.718 59.3139C116.813 59.7055 116.983 60.2029 117.152 60.8591C117.321 61.5152 117.48 62.0761 117.618 62.563C117.755 63.0921 117.946 63.706 118.115 64.3939C118.284 65.0818 118.443 65.6744 118.549 66.0978C118.686 66.5211 118.718 66.7857 118.75 66.8174C114.908 66.3941 111.342 66.193 107.468 66.2565C107.299 66.6164 107.204 67.1138 107.172 67.7593C107.14 68.4155 107.204 69.0717 107.373 69.7596C107.542 70.4475 107.807 71.1037 108.167 71.6963C108.527 72.3207 109.056 72.7441 109.754 73.0404C111.701 73.1674 112.696 73.305 114.686 73.6331C114.749 74.0564 114.749 74.2575 114.824 74.649C111.585 74.448 109.998 74.4903 106.95 74.7443C106.219 74.3527 105.658 73.8236 105.129 73.1674H105.108ZM114.601 65.0395C114.4 64.3198 114.241 63.7271 114.104 63.272C113.966 62.817 113.839 62.3831 113.744 62.0232C113.649 61.6634 113.543 61.3036 113.479 60.9755C113.416 60.6474 113.31 60.2558 113.247 59.7902C112.252 59.7902 111.426 59.9489 110.802 60.3193C110.177 60.6792 109.648 61.1025 109.246 61.5999C108.844 62.0973 108.548 62.6476 108.315 63.2403C108.082 63.833 107.913 64.3515 107.754 64.8172C110.431 64.7537 111.786 64.8172 114.601 65.05V65.0395Z" fill="#13130A"/>
<path d="M119.491 80.2476C119.163 79.4644 118.993 78.6072 118.962 77.6229C118.93 76.6387 119.057 75.5592 119.396 74.4056C119.692 73.2626 120.253 72.0138 121.015 70.7015C121.576 69.7807 122.105 69.0611 122.602 68.5742C123.1 68.0874 123.724 67.7593 124.454 67.59C125.185 67.463 126.105 67.4312 127.195 67.6217C128.285 67.7805 129.746 68.1086 131.524 68.6377C132.847 69.0611 133.514 69.2939 134.794 69.8231V72.1514C134.794 72.8393 134.762 73.4319 134.762 73.9505C134.762 74.5114 134.762 75.1676 134.731 75.8873C134.699 76.6069 134.699 77.2313 134.699 77.6864C134.699 78.1415 134.667 78.4061 134.667 78.4378C131.164 76.7022 127.523 75.3263 123.756 74.3104C123.491 74.6067 123.227 75.03 123.026 75.6544C122.793 76.2788 122.698 76.935 122.623 77.6547C122.592 78.3743 122.655 79.0622 122.825 79.7819C123.026 80.4698 123.385 81.0625 124.02 81.5493C125.904 82.3007 126.836 82.7346 128.719 83.6765C128.656 84.0999 128.624 84.3009 128.55 84.7243C125.407 83.4437 123.851 82.9886 120.782 82.3007C120.221 81.6763 119.787 81.0201 119.491 80.237V80.2476ZM131.132 75.3581V72.1831C131.132 71.7915 131.132 71.4317 131.164 71.1036C131.196 70.7438 131.228 70.3522 131.259 69.8865C130.265 69.5585 129.439 69.495 128.709 69.622C127.979 69.749 127.354 70.0135 126.825 70.3734C126.296 70.7332 125.83 71.1565 125.439 71.654C125.047 72.1514 124.708 72.6064 124.444 72.998C127.09 73.7494 128.412 74.2468 131.122 75.3581H131.132ZM139.694 68.3731C136.424 66.828 134.794 66.2142 131.524 65.1558C131.46 64.9548 131.429 64.8595 131.323 64.7008C134.138 64.669 135.556 64.7325 138.498 65.0288C139.461 65.8437 139.959 66.2459 140.88 67.0926C140.382 67.5794 140.149 67.844 139.684 68.3731H139.694Z" fill="#13130A"/>
<path d="M92.059 128.93C92.059 128.93 84.5766 133.312 75.4538 124.612C69.3261 118.781 63.6112 118.262 62.4682 118.23C62.4364 118.23 62.3941 118.156 62.4682 118.156C63.1984 117.881 66.0876 117.468 70.7866 118.368C70.7866 118.368 64.2038 106.187 64.6271 102.493C64.6589 102.324 64.8706 102.281 64.9447 102.419C65.5691 103.319 67.3153 105.806 69.3367 107.181C72.2577 109.182 75.2951 110.007 75.2951 110.007C75.2951 110.007 67.7386 100.313 67.9185 92.6824C67.9185 92.5131 68.1302 92.4707 68.236 92.5766C69.1462 93.7831 72.2365 97.6459 76.7661 100.683C79.6871 102.652 83.1055 103.858 85.1904 105.171C85.1904 105.171 84.8412 101.477 89.5401 94.9896C91.4875 92.3014 92.0484 88.3644 92.1542 87.5707C92.1542 87.5389 92.1859 87.5389 92.2283 87.5707C92.6834 89.0841 92.8209 92.6824 94.4613 95.0636C96.8955 98.5455 98.61 99.9954 99.2344 105.213L106.717 99.9319C106.717 99.9319 112.95 96.3125 114.834 92.7565C114.908 92.6507 115.046 92.6824 115.046 92.8306C115.046 94.4498 114.559 101.149 108.294 109.848C108.294 109.848 110.072 109.224 112.686 107.88C114.495 106.917 117.565 104.292 118.464 103.255C118.538 103.181 118.634 103.255 118.602 103.361L111.955 118.474C111.955 118.474 118.432 116.992 121.004 118.061C121.036 118.061 121.036 118.135 121.004 118.135C120.062 118.304 113.585 119.585 108.918 123.998C103.796 128.697 96.7685 131.491 92.1013 128.93H92.059Z" fill="#90C3B5"/>
<path d="M87.1377 130.083C84.3861 130.083 80.121 129.142 75.4221 124.654C69.2415 118.77 63.5371 118.315 62.4576 118.283C62.4153 118.283 62.3729 118.241 62.3729 118.199C62.3729 118.177 62.3729 118.156 62.3941 118.146C62.4047 118.146 62.4258 118.135 62.447 118.124C63.1349 117.87 65.9183 117.415 70.7019 118.315C70.1304 117.257 64.1827 105.996 64.5742 102.493C64.5954 102.387 64.6695 102.313 64.7647 102.302C64.7647 102.302 64.7859 102.302 64.7965 102.302C64.8706 102.302 64.9341 102.345 64.9764 102.408C65.5585 103.234 67.3259 105.774 69.3473 107.16C71.8979 108.906 74.5648 109.764 75.1681 109.944C74.3532 108.875 67.6963 99.826 67.855 92.6929C67.855 92.6082 67.8974 92.5341 67.9715 92.5024C68.0561 92.4706 68.1725 92.4918 68.236 92.5553C69.0827 93.6877 72.1942 97.5929 76.7662 100.662C78.4383 101.794 80.301 102.683 81.9414 103.467C83.1267 104.028 84.2379 104.567 85.1269 105.107C85.1163 104.514 85.2222 100.874 89.4872 94.9788C91.2864 92.4918 91.9108 88.9781 92.0907 87.5811C92.0907 87.56 92.1013 87.5282 92.133 87.5176C92.1648 87.5071 92.2071 87.5176 92.2389 87.5494V87.5706C92.3765 88.0045 92.4823 88.5971 92.5987 89.285C92.895 90.9995 93.3078 93.349 94.4719 95.0529C94.8741 95.635 95.2551 96.143 95.6255 96.651C97.4141 99.0851 98.7158 100.842 99.245 105.149L106.674 99.9106C106.738 99.8683 112.919 96.2488 114.771 92.7458C114.813 92.6823 114.887 92.6505 114.951 92.6717C115.014 92.6929 115.056 92.7564 115.056 92.841C115.056 94.111 114.728 100.895 108.378 109.764C108.833 109.594 110.453 108.97 112.633 107.848C114.358 106.927 117.448 104.324 118.401 103.234C118.443 103.191 118.507 103.181 118.559 103.213C118.602 103.244 118.634 103.308 118.612 103.382L111.998 118.421C112.77 118.251 118.581 117.034 120.983 118.029C121.015 118.029 121.046 118.061 121.046 118.103C121.046 118.146 121.015 118.177 120.972 118.177C119.766 118.4 113.458 119.733 108.918 124.03C106.293 126.432 103.245 128.274 100.324 129.226C97.1283 130.263 94.2709 130.179 92.0695 128.983C91.8473 129.099 90.0058 130.073 87.1907 130.083H87.1589H87.1377ZM62.5105 118.199C63.717 118.241 69.3685 118.781 75.475 124.591C80.1528 129.057 84.3967 129.999 87.1377 129.999H87.1695C90.1328 129.999 92.0166 128.909 92.0378 128.898H92.059H92.0801C94.2603 130.094 97.1072 130.179 100.282 129.142C103.193 128.2 106.23 126.358 108.844 123.966C113.363 119.68 119.628 118.336 120.919 118.093C118.369 117.056 111.977 118.505 111.913 118.516L111.828 118.537L111.86 118.463L118.507 103.35C118.507 103.35 118.507 103.297 118.485 103.287C118.475 103.287 118.443 103.287 118.432 103.287C117.565 104.271 114.527 106.917 112.643 107.922C110.061 109.256 108.273 109.88 108.251 109.891L108.124 109.933L108.209 109.827C114.633 100.916 114.961 94.111 114.961 92.841C114.961 92.7987 114.94 92.7669 114.919 92.7564C114.898 92.7458 114.855 92.7564 114.834 92.7987C112.971 96.3229 106.77 99.953 106.706 99.9953L99.1603 105.319V105.245C98.6312 100.905 97.3294 99.1486 95.5408 96.7145C95.1704 96.2171 94.7894 95.6985 94.3873 95.1164C93.2125 93.4019 92.7998 91.0419 92.5035 89.3168C92.387 88.6501 92.2918 88.068 92.1648 87.6446C91.9743 89.084 91.3393 92.5764 89.5507 95.0423C84.9153 101.435 85.201 105.16 85.201 105.192V105.276L85.1375 105.234C84.2485 104.673 83.1055 104.133 81.899 103.551C80.2586 102.768 78.396 101.879 76.7132 100.747C72.1307 97.6776 69.0192 93.7512 68.1725 92.6294C68.1302 92.587 68.0561 92.5764 68.0032 92.5976C67.9715 92.6082 67.9397 92.6399 67.9397 92.7034C67.7704 100.228 75.2422 109.912 75.3162 110.007L75.4009 110.113L75.2739 110.081C75.2739 110.081 72.2048 109.224 69.305 107.245C67.273 105.858 65.495 103.308 64.9023 102.472C64.8812 102.419 64.8282 102.398 64.7859 102.408C64.7436 102.408 64.6801 102.451 64.6695 102.525C64.2567 106.155 70.7654 118.251 70.8289 118.368L70.8713 118.452L70.7866 118.431C66.0771 117.532 63.2302 117.966 62.5317 118.209L62.5105 118.199Z" fill="#13130A"/>
<path d="M98.5042 122.612C98.5042 122.612 107.246 119.225 111.807 118.368L98.5042 122.612Z" fill="#90C3B5"/>
<path d="M98.5042 122.665C98.5042 122.665 98.4725 122.665 98.4619 122.634C98.4619 122.613 98.4619 122.591 98.4831 122.581C98.5677 122.549 107.278 119.184 111.797 118.337C111.818 118.337 111.839 118.347 111.85 118.369C111.85 118.39 111.839 118.411 111.818 118.422C107.31 119.279 98.6101 122.634 98.5254 122.665C98.5254 122.665 98.5254 122.665 98.5148 122.665H98.5042Z" fill="#13130A"/>
<path d="M103.859 120.475C103.859 120.475 105.214 112.982 108.146 109.743L103.859 120.475Z" fill="#90C3B5"/>
<path d="M103.859 120.517C103.838 120.517 103.817 120.485 103.828 120.464C103.838 120.39 105.225 112.928 108.124 109.711C108.135 109.69 108.167 109.69 108.188 109.711C108.209 109.732 108.209 109.754 108.188 109.775C105.309 112.971 103.933 120.411 103.912 120.485C103.912 120.506 103.891 120.517 103.87 120.517H103.859Z" fill="#13130A"/>
<path d="M95.4351 120.612C95.4351 120.612 93.3502 114.78 99.0863 105.149L95.4351 120.612Z" fill="#90C3B5"/>
<path d="M95.435 120.654C95.435 120.654 95.4033 120.643 95.3927 120.622C95.3927 120.612 94.8741 119.119 95.0646 116.484C95.2445 114.05 96.0806 110.103 99.0545 105.118C99.0651 105.097 99.0969 105.086 99.118 105.107C99.1392 105.118 99.1498 105.15 99.1286 105.171C96.1653 110.134 95.3292 114.071 95.1493 116.495C94.9588 119.119 95.4668 120.58 95.4774 120.601C95.4774 120.622 95.4774 120.643 95.4562 120.654C95.4562 120.654 95.4562 120.654 95.4456 120.654H95.435Z" fill="#13130A"/>
<path d="M88.6512 120.611C88.6512 120.611 90.7361 114.748 85 105.012L88.6512 120.611Z" fill="#90C3B5"/>
<path d="M88.6512 120.655C88.6512 120.655 88.6512 120.655 88.6406 120.655C88.6195 120.655 88.6089 120.623 88.6195 120.602C88.6195 120.591 89.138 119.109 88.9476 116.464C88.7676 114.019 87.9316 110.061 84.9683 105.034C84.9577 105.013 84.9682 104.991 84.9788 104.97C85 104.96 85.0212 104.97 85.0423 104.981C88.0162 110.018 88.8523 113.998 89.0322 116.453C89.2227 119.12 88.7041 120.602 88.7041 120.623C88.7041 120.644 88.683 120.655 88.6618 120.655H88.6512Z" fill="#13130A"/>
<path d="M79.285 120.612C79.285 120.612 78.0362 113.055 75.1364 109.774L79.285 120.612Z" fill="#90C3B5"/>
<path d="M79.285 120.654C79.285 120.654 79.2427 120.643 79.2427 120.622C79.2321 120.548 77.9621 113.034 75.1046 109.806C75.094 109.785 75.094 109.764 75.1046 109.743C75.1152 109.722 75.1469 109.732 75.1681 109.743C78.0362 112.992 79.3062 120.527 79.3167 120.601C79.3167 120.622 79.3062 120.643 79.285 120.654Z" fill="#13130A"/>
<path d="M84.1215 122.612C84.1215 122.612 75.3797 119.225 70.8184 118.368L84.1215 122.612Z" fill="#90C3B5"/>
<path d="M84.1215 122.665C84.1215 122.665 84.1215 122.665 84.1109 122.665C84.0263 122.634 75.3268 119.279 70.8184 118.421C70.7972 118.421 70.776 118.39 70.7866 118.369C70.7866 118.347 70.8078 118.326 70.8395 118.337C75.348 119.194 84.058 122.549 84.1427 122.581C84.1639 122.581 84.1744 122.612 84.1639 122.634C84.1639 122.655 84.1427 122.665 84.1215 122.665Z" fill="#13130A"/>
<path d="M92.0591 82.7979C92.0591 82.7979 92.0167 82.7767 92.0167 82.7556V73.6751C92.0167 73.6751 92.0379 73.6328 92.0591 73.6328C92.0802 73.6328 92.1014 73.654 92.1014 73.6751V82.7556C92.1014 82.7556 92.0802 82.7979 92.0591 82.7979Z" fill="#13130A"/>
<path d="M105.045 85.2424C105.045 85.2424 105.045 85.2424 105.034 85.2424C105.013 85.2424 105.002 85.2106 105.013 85.1895L106.929 80.3212C106.929 80.3212 106.96 80.2894 106.981 80.3C107.003 80.3 107.013 80.3318 107.003 80.3529L105.087 85.2212C105.087 85.2212 105.066 85.253 105.045 85.253V85.2424Z" fill="#13130A"/>
<path d="M78.449 85.243C78.449 85.243 78.4172 85.243 78.4067 85.2112L76.4911 80.343C76.4911 80.343 76.4911 80.3006 76.5123 80.29C76.5334 80.29 76.5546 80.29 76.5652 80.3112L78.4807 85.1795C78.4807 85.1795 78.4807 85.2218 78.4596 85.2324C78.4596 85.2324 78.449 85.2324 78.4384 85.2324L78.449 85.243Z" fill="#13130A"/>
<path d="M67.3048 90.323C67.3048 90.323 67.2836 90.323 67.273 90.3124L61.0712 83.6556C61.0712 83.6556 61.0606 83.6132 61.0712 83.592C61.0924 83.5709 61.1136 83.5709 61.1347 83.592L67.3365 90.2489C67.3365 90.2489 67.3471 90.2912 67.3365 90.3124C67.3365 90.3124 67.3154 90.323 67.3048 90.323Z" fill="#13130A"/>
<path d="M60.8596 98.1541C60.8596 98.1541 60.849 98.1541 60.8384 98.1541L56.277 95.4977C56.277 95.4977 56.2453 95.4554 56.2664 95.4342C56.277 95.4131 56.3088 95.4025 56.3299 95.4236L60.8913 98.08C60.8913 98.08 60.9231 98.1224 60.9019 98.1435C60.9019 98.1541 60.8807 98.1647 60.8596 98.1647V98.1541Z" fill="#13130A"/>
<path d="M57.3142 106.06L48.2655 104.684C48.2655 104.684 48.2232 104.663 48.2338 104.631C48.2338 104.61 48.2549 104.589 48.2867 104.599L57.3354 105.975C57.3354 105.975 57.3777 105.996 57.3671 106.028C57.3671 106.049 57.3459 106.071 57.3248 106.071L57.3142 106.06Z" fill="#13130A"/>
<path d="M115.808 90.9783C115.808 90.9783 115.787 90.9783 115.776 90.9783C115.755 90.9677 115.755 90.936 115.776 90.9148L121.523 83.8346C121.523 83.8346 121.565 83.8134 121.586 83.8346C121.608 83.8452 121.608 83.8769 121.586 83.8981L115.84 90.9783C115.84 90.9783 115.818 90.9995 115.808 90.9995V90.9783Z" fill="#13130A"/>
<path d="M121.343 96.5346C121.343 96.5346 121.311 96.5346 121.301 96.5135C121.29 96.4923 121.301 96.4711 121.322 96.45L125.957 93.8994C125.957 93.8994 126 93.8994 126.021 93.9206C126.031 93.9417 126.021 93.9629 126 93.9841L121.364 96.5346C121.364 96.5346 121.353 96.5346 121.343 96.5346Z" fill="#13130A"/>
<path d="M123.29 106.124C123.29 106.124 123.258 106.124 123.248 106.092C123.248 106.071 123.248 106.05 123.269 106.039L131.831 102.79C131.831 102.79 131.884 102.79 131.884 102.811C131.884 102.832 131.884 102.854 131.863 102.864L123.301 106.113C123.301 106.113 123.301 106.113 123.29 106.113V106.124Z" fill="#13130A"/>
<path d="M35.2375 55.1331C34.7824 55.8316 34.2744 56.4455 33.6817 56.9746C33.0996 57.5038 32.5493 57.8742 32.0307 58.107L30.7607 56.1809C31.2476 55.9586 31.7238 55.6517 32.2001 55.2496C32.6763 54.858 33.0679 54.4135 33.3854 53.9267C33.6076 53.588 33.7452 53.3022 33.8193 53.0694C33.8934 52.8366 33.904 52.6355 33.8616 52.4767C33.8193 52.318 33.7241 52.191 33.5759 52.0957C33.3854 51.9793 33.1843 51.9688 32.9621 52.0746C32.7398 52.1804 32.4964 52.3497 32.2424 52.5932C31.9778 52.826 31.7132 53.0906 31.4275 53.3869C31.1417 53.6727 30.8348 53.9584 30.4962 54.2336C30.1575 54.5087 29.8083 54.7204 29.4484 54.8897C29.078 55.0485 28.697 55.1226 28.2843 55.1014C27.8715 55.0802 27.4482 54.9321 26.9931 54.6357C26.4957 54.3182 26.1253 53.8843 25.8925 53.3446C25.6596 52.8048 25.5961 52.1804 25.702 51.4608C25.8078 50.7411 26.1253 49.9685 26.665 49.143C27.0249 48.5927 27.4376 48.0847 27.9033 47.6296C28.3689 47.1745 28.8663 46.8253 29.3743 46.5713L30.6655 48.4234C30.1787 48.6774 29.7659 48.9737 29.4061 49.3018C29.0463 49.6299 28.7499 49.9791 28.5065 50.3495C28.2948 50.6776 28.1573 50.9633 28.1044 51.2173C28.0514 51.4713 28.0514 51.6724 28.1044 51.8312C28.1573 51.9899 28.2525 52.1169 28.3795 52.2016C28.57 52.3286 28.7817 52.3286 29.0039 52.2227C29.2262 52.1169 29.459 51.9476 29.713 51.7042C29.9564 51.4713 30.2316 51.1962 30.5279 50.9104C30.8242 50.6141 31.1312 50.3283 31.4592 50.0638C31.7873 49.7992 32.126 49.5769 32.4964 49.4076C32.8562 49.2383 33.2478 49.1642 33.6606 49.1748C34.0627 49.1854 34.4966 49.3335 34.9411 49.6193C35.428 49.9368 35.7984 50.3601 36.0312 50.9104C36.264 51.4502 36.3275 52.0852 36.2217 52.8048C36.1159 53.5245 35.7878 54.2971 35.248 55.1331H35.2375Z" fill="#008382"/>
<path d="M37.9891 50.6357L29.9247 43.672L31.7027 41.6082L39.7671 48.572L37.9891 50.6357ZM38.3913 47.9688L35.9466 45.7886L35.682 41.3754L37.788 38.9307L38.2537 43.9789L38.2008 45.7569L38.3807 47.9793L38.3913 47.9688ZM41.7144 46.3072L37.9045 46.1484L37.407 43.5238L43.8734 43.8095L41.7144 46.3072Z" fill="#008382"/>
<path d="M39.513 36.2847C39.1426 36.6339 38.7511 36.8032 38.3383 36.8138C37.9256 36.8138 37.5869 36.6656 37.3011 36.3693C37.0154 36.073 36.899 35.7132 36.9307 35.311C36.9625 34.9088 37.1636 34.5278 37.534 34.1786C37.8938 33.8399 38.2748 33.66 38.677 33.6388C39.0791 33.6177 39.4178 33.7553 39.693 34.0516C39.9893 34.3691 40.1163 34.7289 40.0951 35.1522C40.074 35.5756 39.8729 35.946 39.5025 36.2952L39.513 36.2847ZM44.4131 43.5236L39.0897 37.8298L41.0794 35.9672L46.4028 41.6609L44.4131 43.5236Z" fill="#008382"/>
<path d="M46.7732 31.1942C47.2601 30.8343 47.7681 30.6015 48.3078 30.5062C48.8476 30.411 49.3767 30.4851 49.9165 30.7179C50.4456 30.9507 50.9536 31.3952 51.4405 32.0408L54.1074 35.5968L51.9167 37.2478L49.5143 34.041C49.1862 33.5966 48.8476 33.3426 48.5195 33.2791C48.1914 33.2156 47.8633 33.2896 47.567 33.5225C47.3341 33.7024 47.1542 33.914 47.0378 34.1575C46.9214 34.4009 46.9002 34.676 46.9532 34.9724C47.0061 35.2687 47.1648 35.5862 47.4294 35.946L49.6836 38.9411L47.5035 40.5815L42.8257 34.348L44.9106 32.7816L46.2441 34.5596L45.4397 34.3585C45.3445 33.7341 45.408 33.1521 45.6514 32.6123C45.8842 32.0726 46.2652 31.5963 46.7838 31.2153L46.7732 31.1942Z" fill="#008382"/>
<path d="M59.8118 32.6233C59.1133 32.9937 58.4042 33.2371 57.6952 33.3324C56.9861 33.4276 56.2982 33.3853 55.642 33.216C54.9859 33.0466 54.3826 32.7397 53.8323 32.3058C53.2819 31.8719 52.8269 31.3216 52.467 30.6442C52.1072 29.9669 51.8955 29.279 51.832 28.5911C51.7685 27.8926 51.8532 27.2259 52.0755 26.5803C52.2977 25.9347 52.6364 25.342 53.1126 24.8023C53.5783 24.2625 54.1709 23.8075 54.8694 23.4265C55.6843 22.982 56.4993 22.7386 57.293 22.6751C58.0867 22.6116 58.8487 22.7386 59.579 23.0561L58.7641 25.3526C58.2984 25.1727 57.8433 25.0775 57.3988 25.088C56.9543 25.088 56.531 25.215 56.1183 25.4373C55.7584 25.6278 55.4515 25.8712 55.2187 26.1464C54.9753 26.4215 54.8165 26.739 54.7107 27.0777C54.6154 27.4164 54.5943 27.7762 54.6366 28.1466C54.6789 28.5276 54.8059 28.898 55.007 29.279C55.2081 29.66 55.4621 29.9669 55.7478 30.2209C56.0336 30.4643 56.3511 30.6442 56.6898 30.7501C57.0284 30.8559 57.3777 30.8877 57.7375 30.8453C58.1079 30.803 58.4677 30.676 58.8382 30.4855C59.2509 30.2632 59.579 29.9669 59.833 29.6071C60.087 29.2473 60.2563 28.8133 60.3621 28.3159L62.7328 28.898C62.5952 29.6812 62.2883 30.3797 61.7909 31.0147C61.3041 31.6497 60.6479 32.1894 59.833 32.6233H59.8118Z" fill="#008382"/>
<path d="M68.7334 28.5591L68.236 27.1939L67.9397 26.9187L67.0295 24.4105C66.8814 24.0083 66.6485 23.7437 66.3205 23.6062C65.9924 23.4792 65.5585 23.5109 65.0187 23.7014C64.6695 23.8284 64.3308 24.0189 64.0133 24.2623C63.6958 24.5163 63.4418 24.7703 63.2513 25.0455L61.7697 23.6273C62.0872 23.204 62.5105 22.8124 63.0291 22.4526C63.5582 22.0928 64.098 21.7964 64.68 21.5953C65.8654 21.1614 66.8814 21.1085 67.7386 21.4154C68.5853 21.7223 69.2308 22.4632 69.6436 23.6167L71.1253 27.6807L68.744 28.5485L68.7334 28.5591ZM66.6168 29.4693C66.0453 29.6809 65.5161 29.755 65.0293 29.7127C64.5425 29.6598 64.1403 29.501 63.8016 29.2365C63.463 28.9719 63.2196 28.6332 63.0714 28.2205C62.9126 27.776 62.8809 27.3421 62.9867 26.9187C63.0926 26.506 63.3571 26.125 63.7699 25.7651C64.1826 25.4053 64.7647 25.109 65.5161 24.8338L67.2412 24.2094L67.728 25.5535L66.3522 26.0509C65.9395 26.1991 65.6749 26.3684 65.5479 26.5589C65.4315 26.7494 65.4103 26.9611 65.495 27.1939C65.5796 27.4055 65.7278 27.5537 65.95 27.6384C66.1723 27.7125 66.4263 27.7019 66.7332 27.596C67.0189 27.4902 67.2518 27.3315 67.4317 27.1092C67.6116 26.887 67.6963 26.6118 67.6963 26.2837L68.3948 27.0986C68.4477 27.649 68.3207 28.1252 68.0244 28.5274C67.728 28.9295 67.2624 29.2365 66.6168 29.4693Z" fill="#008382"/>
<path d="M72.5223 27.3418L70.6914 19.7642L73.2314 19.1503L73.7606 21.3728L73.2208 20.8436C73.3161 20.2192 73.5806 19.7007 74.004 19.2985C74.4273 18.8963 74.9988 18.6 75.7185 18.4307L76.2899 20.8331C76.1629 20.8331 76.0571 20.8542 75.9619 20.8754C75.8666 20.8966 75.7714 20.9177 75.6867 20.9389C75.147 21.0659 74.7448 21.3199 74.4802 21.6903C74.2156 22.0607 74.1627 22.5793 74.3215 23.246L75.1575 26.7174L72.5117 27.3523L72.5223 27.3418Z" fill="#008382"/>
<path d="M82.4177 25.5642C81.4969 25.6806 80.6714 25.6066 79.9518 25.342C79.2321 25.0774 78.65 24.6752 78.195 24.1143C77.7505 23.5534 77.4753 22.8972 77.38 22.1352C77.2848 21.3521 77.38 20.643 77.6764 19.9974C77.9621 19.3519 78.4066 18.8121 79.0099 18.3888C79.6025 17.9654 80.3116 17.7009 81.1265 17.6056C81.8885 17.5104 82.5976 17.5844 83.2537 17.8279C83.9099 18.0713 84.4708 18.4629 84.9153 19.0132C85.3598 19.5635 85.6456 20.262 85.7514 21.1193C85.762 21.2145 85.7726 21.3203 85.7726 21.4473C85.7726 21.5743 85.7726 21.6908 85.7831 21.7966L79.6766 22.5586L79.4967 21.1298L84.1745 20.5478L83.2008 21.0769C83.1691 20.7383 83.0632 20.4419 82.8939 20.1985C82.7246 19.9551 82.5129 19.7752 82.2589 19.6693C82.0049 19.5529 81.7192 19.5212 81.3911 19.5635C81.063 19.6058 80.7773 19.7117 80.5444 19.881C80.3116 20.0503 80.1528 20.2832 80.0576 20.5583C79.9624 20.8335 79.9306 21.151 79.9835 21.5003L80.0364 21.913C80.0788 22.294 80.2058 22.6115 80.3963 22.8655C80.5868 23.1195 80.8408 23.31 81.1477 23.4158C81.4652 23.5217 81.825 23.5534 82.2272 23.5005C82.6188 23.4476 82.9363 23.3523 83.1902 23.2147C83.4442 23.0772 83.6877 22.8761 83.9205 22.6115L85.5186 23.9344C85.2116 24.3789 84.7989 24.7387 84.2803 25.0245C83.7617 25.3102 83.1479 25.4901 82.4177 25.5854V25.5642Z" fill="#008382"/>
<path d="M91.2547 24.7279L92.3236 14.7373L94.6519 14.9913L98.0491 22.2303L96.8215 22.1033L101.584 15.7427L103.912 15.9967L102.854 25.9873L100.25 25.7121L100.864 19.6691L101.309 19.7114L97.7528 24.4422L96.4934 24.3046L93.9322 18.9177L94.472 18.9812L93.8264 25.0136L91.2335 24.7385L91.2547 24.7279Z" fill="#008382"/>
<path d="M108.156 27.6596C107.267 27.4056 106.537 27.014 105.976 26.4954C105.415 25.9768 105.034 25.363 104.833 24.6751C104.632 23.9872 104.642 23.2781 104.854 22.5373C105.066 21.7859 105.436 21.1615 105.955 20.6746C106.473 20.1878 107.087 19.8703 107.807 19.7116C108.526 19.5528 109.278 19.5951 110.072 19.8174C110.812 20.029 111.437 20.3677 111.945 20.8545C112.463 21.3308 112.813 21.9129 113.014 22.5902C113.215 23.2675 113.194 24.0189 112.961 24.855C112.94 24.9503 112.897 25.0561 112.855 25.1725C112.813 25.2889 112.77 25.3948 112.728 25.5006L106.801 23.8179L107.193 22.442L111.723 23.7226L110.622 23.8284C110.728 23.5004 110.749 23.1934 110.685 22.8971C110.622 22.6008 110.495 22.3574 110.304 22.1563C110.114 21.9552 109.86 21.807 109.553 21.7224C109.236 21.6271 108.929 21.6165 108.653 21.6906C108.378 21.7647 108.135 21.9023 107.944 22.1245C107.743 22.3468 107.606 22.6219 107.5 22.9606L107.383 23.3628C107.278 23.7332 107.267 24.0719 107.341 24.3788C107.415 24.6857 107.574 24.9503 107.828 25.1831C108.071 25.4053 108.389 25.5747 108.791 25.6911C109.172 25.7969 109.5 25.8393 109.786 25.8075C110.072 25.7758 110.379 25.6805 110.696 25.5323L111.649 27.3738C111.193 27.6596 110.664 27.8289 110.082 27.8924C109.5 27.9559 108.855 27.8818 108.145 27.6807L108.156 27.6596Z" fill="#008382"/>
<path d="M111.733 28.5162L116.887 25.627L116.21 27.024L114.908 21.4043L117.734 22.6214L118.401 25.9022L117.332 25.5L120.327 23.7326L122.962 24.865L117.999 27.6802L118.602 26.3149L119.967 32.0616L117.088 30.8234L116.432 27.3521L117.427 27.9553L114.453 29.691L111.723 28.5162H111.733Z" fill="#008382"/>
<path d="M120.454 32.4537L124.327 25.691L126.698 27.0456L122.825 33.8083L120.454 32.4537ZM125.936 25.6381C125.491 25.3841 125.216 25.0666 125.089 24.675C124.962 24.2834 125.005 23.913 125.216 23.5532C125.417 23.1933 125.724 22.9711 126.116 22.8864C126.518 22.8017 126.931 22.8864 127.375 23.1298C127.809 23.3732 128.095 23.6907 128.233 24.0612C128.37 24.4421 128.338 24.802 128.137 25.1512C127.926 25.5216 127.608 25.7651 127.206 25.8603C126.804 25.9556 126.38 25.8815 125.936 25.6275V25.6381Z" fill="#008382"/>
<path d="M127.375 36.8348C126.656 36.348 126.116 35.7659 125.756 35.0992C125.396 34.4324 125.227 33.7445 125.259 33.0249C125.29 32.3052 125.523 31.6279 125.957 30.9929C126.402 30.3473 126.952 29.8816 127.608 29.5959C128.264 29.3101 128.973 29.2149 129.714 29.3101C130.466 29.3948 131.196 29.6911 131.916 30.178C132.646 30.6754 133.164 31.2575 133.482 31.9348C133.799 32.6121 133.873 33.3 133.725 33.9985L131.365 33.7022C131.418 33.3 131.386 32.9508 131.259 32.665C131.132 32.3793 130.942 32.1464 130.677 31.9665C130.413 31.7866 130.138 31.6914 129.852 31.6596C129.566 31.6384 129.28 31.6914 129.005 31.8289C128.73 31.9665 128.476 32.1994 128.243 32.538C128.021 32.8555 127.894 33.1836 127.862 33.5011C127.83 33.8186 127.883 34.1043 128.01 34.3689C128.137 34.6335 128.338 34.8558 128.592 35.0251C128.857 35.205 129.143 35.3003 129.46 35.3108C129.778 35.3214 130.116 35.2368 130.466 35.0357L131.598 37.11C130.995 37.5122 130.328 37.6921 129.587 37.6392C128.846 37.5862 128.106 37.3111 127.386 36.8242L127.375 36.8348Z" fill="#008382"/>
<path d="M132.741 40.9941C132.286 40.5813 131.968 40.158 131.778 39.7135C131.598 39.269 131.545 38.8351 131.619 38.4118C131.693 37.9884 131.884 37.618 132.17 37.2899C132.487 36.9301 132.857 36.7079 133.27 36.602C133.683 36.4962 134.149 36.5491 134.657 36.7502C135.165 36.9513 135.715 37.3217 136.297 37.8509L137.662 39.0785L136.699 40.1474L135.609 39.1738C135.281 38.8774 135.006 38.7293 134.784 38.7081C134.561 38.6869 134.371 38.7716 134.202 38.9621C134.053 39.1314 133.99 39.3325 134.022 39.5653C134.064 39.7982 134.191 40.0204 134.434 40.2321C134.667 40.4332 134.921 40.5602 135.196 40.6131C135.472 40.666 135.757 40.6131 136.043 40.4543L135.651 41.4492C135.186 41.7561 134.71 41.8725 134.223 41.7984C133.725 41.7243 133.228 41.4597 132.73 41.0047L132.741 40.9941ZM134.54 42.4334L135.503 41.3539L135.599 40.9623L137.376 38.9727C137.662 38.6552 137.789 38.3165 137.747 37.9673C137.705 37.618 137.472 37.2476 137.048 36.8666C136.773 36.6126 136.445 36.4115 136.075 36.2422C135.704 36.0729 135.355 35.9776 135.027 35.9353L135.577 33.9668C136.096 34.0515 136.636 34.2314 137.207 34.5171C137.779 34.8135 138.287 35.1521 138.742 35.5649C139.684 36.4115 140.213 37.2794 140.34 38.1789C140.467 39.0785 140.118 39.9887 139.292 40.9094L136.413 44.1267L134.519 42.4334H134.54Z" fill="#008382"/>
<path d="M146.732 43.8622C147.124 44.3279 147.378 44.8253 147.505 45.3544C147.632 45.8836 147.589 46.4234 147.378 46.9737C147.177 47.5134 146.764 48.0426 146.15 48.5612L142.742 51.4292L140.975 49.3337L144.033 46.7514C144.457 46.3916 144.7 46.0529 144.742 45.7143C144.795 45.3756 144.689 45.0687 144.446 44.7724C144.256 44.5501 144.033 44.3808 143.779 44.2855C143.525 44.1903 143.25 44.1691 142.964 44.2432C142.679 44.3173 142.361 44.4866 142.022 44.7724L139.154 47.1853L137.398 45.1004L143.356 40.084L145.039 42.0842L143.335 43.513L143.494 42.698C144.107 42.571 144.689 42.6028 145.25 42.8145C145.801 43.0261 146.298 43.3754 146.711 43.8728L146.732 43.8622Z" fill="#008382"/>
<path d="M145.526 56.0123C145.081 55.2926 144.827 54.5518 144.774 53.8109C144.721 53.0701 144.848 52.3716 145.176 51.7366C145.494 51.0911 145.981 50.5725 146.637 50.1597C147.304 49.747 148.002 49.5459 148.711 49.5459C149.431 49.5459 150.108 49.7364 150.743 50.1174C151.378 50.4984 151.928 51.0487 152.373 51.779C152.817 52.5092 153.071 53.2395 153.124 53.9909C153.177 54.7423 153.05 55.4302 152.733 56.0758C152.415 56.7213 151.918 57.2399 151.251 57.6527C150.595 58.0548 149.907 58.2665 149.187 58.2559C148.468 58.2453 147.79 58.0654 147.155 57.6738C146.51 57.2928 145.97 56.7319 145.526 56.0123ZM147.367 54.8693C147.526 55.1339 147.737 55.3244 147.981 55.4619C148.235 55.5995 148.51 55.6524 148.838 55.6313C149.156 55.6101 149.484 55.4937 149.812 55.2926C150.15 55.0809 150.404 54.8375 150.553 54.5729C150.701 54.3084 150.775 54.0332 150.775 53.7475C150.775 53.4617 150.68 53.1971 150.521 52.9325C150.362 52.668 150.15 52.4775 149.907 52.3399C149.653 52.2129 149.378 52.1494 149.071 52.16C148.764 52.1705 148.447 52.287 148.097 52.4986C147.769 52.7103 147.515 52.9431 147.356 53.2183C147.198 53.4935 147.113 53.7686 147.124 54.0544C147.124 54.3401 147.208 54.6153 147.378 54.8693H147.367Z" fill="#008382"/>
<path d="M21.3099 122.231L25.9983 119.902L27.0037 121.934C27.2154 122.358 27.3212 122.749 27.3424 123.12C27.353 123.49 27.2789 123.818 27.1096 124.114C26.9402 124.411 26.6756 124.644 26.3264 124.813C25.9772 124.993 25.6279 125.056 25.2998 125.014C24.9612 124.972 24.6542 124.834 24.3685 124.601C24.0827 124.368 23.8288 124.04 23.6171 123.617L22.908 122.178L23.6383 122.432L21.8603 123.321L21.3205 122.231H21.3099ZM23.5113 122.495L23.7758 121.744L24.4637 123.12C24.6331 123.448 24.8236 123.659 25.0564 123.765C25.2787 123.86 25.5221 123.85 25.7867 123.723C26.0407 123.596 26.1994 123.405 26.2629 123.173C26.3158 122.929 26.2629 122.643 26.1042 122.315L25.4162 120.939L26.1782 121.183L23.5218 122.506L23.5113 122.495Z" fill="#009FE3"/>
<path d="M23.8393 127.152L27.3318 125.151L27.8821 126.114L26.8873 126.686L27.0989 126.379C27.4058 126.347 27.6916 126.4 27.9456 126.559C28.1996 126.718 28.4324 126.961 28.6123 127.289L27.6704 127.829C27.6704 127.829 27.6387 127.744 27.6281 127.702C27.6069 127.66 27.5963 127.628 27.5752 127.596C27.4164 127.31 27.2048 127.13 26.9402 127.056C26.6862 126.982 26.3898 127.035 26.0512 127.226L24.4002 128.168L23.8181 127.152H23.8393Z" fill="#009FE3"/>
<path d="M26.4851 131.671C26.2523 131.321 26.1253 130.951 26.0935 130.57C26.0618 130.189 26.1253 129.84 26.284 129.512C26.4428 129.184 26.6862 128.908 27.0248 128.697C27.3635 128.475 27.7127 128.358 28.0832 128.348C28.4536 128.337 28.7922 128.422 29.1203 128.602C29.4484 128.781 29.7341 129.046 29.9564 129.406C30.1892 129.766 30.3268 130.136 30.3586 130.507C30.3903 130.888 30.3268 131.237 30.1681 131.565C30.0093 131.893 29.7659 132.168 29.4167 132.39C29.078 132.613 28.7287 132.729 28.3689 132.74C28.0091 132.74 27.6598 132.666 27.3212 132.475C26.9931 132.295 26.7073 132.02 26.4745 131.66L26.4851 131.671ZM27.2894 131.152C27.3952 131.321 27.5328 131.438 27.6916 131.523C27.8503 131.607 28.0197 131.639 28.2102 131.618C28.4007 131.607 28.5912 131.533 28.7922 131.406C28.9933 131.279 29.1309 131.131 29.2156 130.962C29.3002 130.792 29.3426 130.623 29.332 130.443C29.332 130.263 29.2685 130.094 29.1627 129.935C29.0568 129.766 28.9298 129.649 28.7711 129.565C28.6123 129.48 28.443 129.448 28.2525 129.459C28.062 129.469 27.8715 129.543 27.6704 129.67C27.4799 129.797 27.3317 129.946 27.2471 130.115C27.1518 130.284 27.1201 130.454 27.1201 130.634C27.1307 130.813 27.1836 130.983 27.2894 131.142V131.152Z" fill="#009FE3"/>
<path d="M29.3215 135.746C29.0887 135.439 28.9617 135.121 28.9087 134.772C28.8664 134.423 28.9087 134.095 29.0569 133.767C29.1945 133.438 29.4379 133.153 29.7766 132.899C30.1152 132.645 30.4539 132.497 30.8031 132.454C31.1524 132.412 31.4911 132.454 31.8086 132.592C32.1261 132.729 32.4012 132.952 32.6341 133.259C32.8351 133.534 32.9516 133.809 32.9939 134.105C33.0256 134.402 32.9621 134.687 32.8034 134.984C32.6446 135.28 32.3801 135.566 31.9991 135.851C31.6286 136.137 31.2688 136.317 30.9407 136.391C30.6127 136.465 30.3163 136.455 30.0412 136.338C29.7766 136.222 29.5332 136.031 29.3215 135.746ZM30.1999 135.322C30.3163 135.481 30.4539 135.587 30.6232 135.661C30.782 135.735 30.9619 135.756 31.1524 135.724C31.3429 135.693 31.5334 135.619 31.7133 135.47C31.9038 135.333 32.0308 135.174 32.1049 135.005C32.179 134.835 32.2107 134.656 32.179 134.476C32.1578 134.296 32.0837 134.137 31.9673 133.978C31.8509 133.83 31.7133 133.714 31.5546 133.65C31.3958 133.576 31.2159 133.555 31.0254 133.576C30.8349 133.608 30.655 133.682 30.4645 133.83C30.2846 133.968 30.147 134.126 30.0729 134.296C29.9988 134.465 29.9671 134.645 29.9882 134.825C30.0094 135.005 30.0835 135.164 30.1893 135.312L30.1999 135.322ZM30.1258 136.709L30.782 136.211L31.7556 135.513L32.6552 134.74L34.5285 133.333L35.227 134.264L30.7926 137.608L30.1258 136.719V136.709Z" fill="#009FE3"/>
<path d="M32.687 139.926C32.4647 139.672 32.3165 139.396 32.2425 139.121C32.1684 138.836 32.1896 138.56 32.2954 138.275C32.4012 137.989 32.6129 137.714 32.9198 137.439L34.6343 135.946L35.4069 136.825L33.83 138.201C33.576 138.423 33.4384 138.634 33.4066 138.846C33.3855 139.058 33.449 139.259 33.6289 139.46C33.7453 139.598 33.8829 139.693 34.031 139.746C34.1792 139.799 34.3485 139.799 34.5179 139.756C34.6978 139.714 34.8671 139.619 35.047 139.46L36.5499 138.148L37.3118 139.026L34.2745 141.672L33.5442 140.836L34.3803 140.106L34.2639 140.476C33.957 140.55 33.6712 140.539 33.396 140.444C33.1209 140.349 32.8775 140.18 32.6764 139.947L32.687 139.926Z" fill="#009FE3"/>
<path d="M36.497 144.022C36.19 143.715 35.9784 143.376 35.8725 143.016C35.7561 142.656 35.7455 142.286 35.8302 141.937C35.9149 141.577 36.1054 141.259 36.3805 140.974C36.6663 140.688 36.9838 140.508 37.3436 140.423C37.6929 140.339 38.0527 140.36 38.4231 140.466C38.7829 140.582 39.1216 140.783 39.4285 141.09C39.7248 141.386 39.9259 141.714 40.0212 142.064C40.1164 142.413 40.1058 142.752 39.9683 143.08L38.984 142.794C39.0369 142.582 39.0475 142.392 38.9946 142.222C38.9523 142.053 38.857 141.905 38.73 141.767C38.5924 141.63 38.4337 141.535 38.2644 141.482C38.0844 141.429 37.9151 141.429 37.7246 141.482C37.5341 141.535 37.3648 141.64 37.1954 141.799C37.0261 141.968 36.9203 142.138 36.8674 142.328C36.8144 142.508 36.8144 142.699 36.8674 142.868C36.9203 143.037 37.0155 143.196 37.1531 143.334C37.2801 143.461 37.4283 143.556 37.6082 143.598C37.7775 143.641 37.968 143.641 38.1903 143.577L38.476 144.561C38.1479 144.688 37.8093 144.699 37.46 144.604C37.1108 144.508 36.7827 144.307 36.4864 144.011L36.497 144.022Z" fill="#009FE3"/>
<path d="M39.6931 147.027C39.3439 146.709 39.1534 146.371 39.111 146.011C39.0793 145.651 39.2169 145.302 39.5344 144.942L41.8944 142.317L42.7728 143.101L40.4233 145.704C40.3069 145.831 40.254 145.958 40.254 146.085C40.254 146.212 40.3069 146.328 40.4233 146.424C40.5609 146.551 40.7197 146.625 40.8784 146.635L40.5609 147.45C40.4233 147.44 40.2752 147.387 40.1164 147.313C39.9683 147.228 39.8201 147.133 39.6825 147.016L39.6931 147.027ZM40.1905 143.302L40.7938 142.635L42.8681 144.498L42.2648 145.164L40.1905 143.302Z" fill="#009FE3"/>
<path d="M42.4023 149.314C42.0743 149.049 41.8308 148.742 41.6933 148.393C41.5451 148.044 41.5028 147.694 41.5451 147.324C41.598 146.964 41.7462 146.625 41.9896 146.318C42.2436 146.001 42.5399 145.789 42.8892 145.662C43.2384 145.535 43.5877 145.514 43.9581 145.578C44.3285 145.652 44.6777 145.821 45.0058 146.086C45.3445 146.35 45.5773 146.657 45.7255 147.006C45.8737 147.356 45.9266 147.705 45.8737 148.075C45.8207 148.435 45.6726 148.774 45.4186 149.091C45.1646 149.409 44.8682 149.62 44.5296 149.747C44.1909 149.864 43.8311 149.896 43.4607 149.822C43.0903 149.747 42.7304 149.578 42.4023 149.314ZM43.0056 148.573C43.1643 148.7 43.3231 148.774 43.503 148.806C43.6723 148.837 43.8522 148.806 44.0322 148.731C44.2121 148.657 44.3708 148.53 44.519 148.35C44.6672 148.171 44.7518 147.98 44.7836 147.8C44.8153 147.61 44.7942 147.44 44.7307 147.271C44.6672 147.102 44.5613 146.964 44.4026 146.837C44.2544 146.71 44.0851 146.636 43.9157 146.615C43.7358 146.583 43.5665 146.615 43.3866 146.678C43.2067 146.752 43.0479 146.879 42.8998 147.059C42.7516 147.239 42.6669 147.419 42.6352 147.61C42.6034 147.8 42.614 147.98 42.6775 148.139C42.741 148.298 42.8468 148.446 42.995 148.562L43.0056 148.573Z" fill="#009FE3"/>
<path d="M46.0429 152.075C45.7572 151.874 45.5138 151.652 45.3127 151.398C45.101 151.154 44.9635 150.921 44.8788 150.71L45.6725 150.255C45.7678 150.456 45.8948 150.657 46.0535 150.858C46.2229 151.059 46.4028 151.239 46.6039 151.376C46.8261 151.535 46.9954 151.62 47.1224 151.63C47.2494 151.641 47.3447 151.599 47.4188 151.503C47.4717 151.429 47.4823 151.345 47.4399 151.249C47.3976 151.165 47.3235 151.07 47.2177 150.964C47.1119 150.858 46.9954 150.752 46.8684 150.625C46.7414 150.509 46.6144 150.371 46.5086 150.233C46.3922 150.096 46.2969 149.958 46.2229 149.8C46.1488 149.651 46.117 149.482 46.1382 149.313C46.1488 149.143 46.2229 148.964 46.3604 148.784C46.5086 148.572 46.6991 148.434 46.9319 148.36C47.1648 148.286 47.4293 148.286 47.7151 148.36C48.0008 148.434 48.3078 148.572 48.6253 148.805C48.8581 148.963 49.0698 149.154 49.2603 149.366C49.4508 149.577 49.5989 149.789 49.6942 149.99L48.8898 150.435C48.7946 150.233 48.6888 150.064 48.5512 149.905C48.4136 149.757 48.276 149.63 48.1278 149.524C47.9056 149.366 47.7257 149.281 47.5881 149.27C47.4505 149.26 47.3447 149.292 47.2812 149.387C47.2283 149.471 47.2177 149.556 47.26 149.651C47.3023 149.747 47.3764 149.842 47.4823 149.948C47.5881 150.054 47.7045 150.17 47.8315 150.286C47.9585 150.403 48.0749 150.54 48.1913 150.667C48.3078 150.805 48.3924 150.943 48.4665 151.101C48.5406 151.249 48.5723 151.419 48.5512 151.588C48.5406 151.757 48.4665 151.937 48.3289 152.117C48.1913 152.318 48.0008 152.456 47.768 152.519C47.5352 152.594 47.2706 152.594 46.9743 152.519C46.6779 152.445 46.371 152.287 46.0429 152.054V152.075Z" fill="#009FE3"/>
<path d="M49.7366 154.541L54.3615 151.154L55.3986 151.747L54.8271 157.462L53.7265 156.827L54.3615 151.863L54.7848 152.107L50.8161 155.155L49.7366 154.541ZM51.3135 154.149L52.0437 153.504L54.3932 154.858L54.2027 155.811L51.3135 154.149Z" fill="#009FE3"/>
<path d="M55.4515 157.727L57.2401 154.118L58.2349 154.616L57.7269 155.642V155.272C57.9704 155.071 58.2349 154.965 58.5418 154.944C58.8488 154.933 59.1663 155.007 59.5049 155.176L59.0181 156.15C59.0181 156.15 58.944 156.097 58.9123 156.076C58.8805 156.055 58.8382 156.034 58.8064 156.013C58.5101 155.864 58.2349 155.833 57.9809 155.907C57.7269 155.991 57.5153 156.203 57.3459 156.542L56.4993 158.246L55.4515 157.727Z" fill="#009FE3"/>
<path d="M60.0446 159.96C59.6107 159.769 59.325 159.515 59.1768 159.187C59.0286 158.859 59.0604 158.478 59.2509 158.033L60.669 154.795L61.7485 155.271L60.3409 158.488C60.2774 158.647 60.2563 158.785 60.2986 158.901C60.3409 159.028 60.4256 159.113 60.5632 159.176C60.7325 159.25 60.9019 159.272 61.0606 159.229L61.0077 160.108C60.8701 160.139 60.7114 160.139 60.542 160.108C60.3727 160.076 60.2034 160.023 60.0446 159.96ZM59.3461 156.266L59.706 155.441L62.2565 156.562L61.8967 157.388L59.3461 156.266Z" fill="#009FE3"/>
<path d="M63.4313 161.314C62.9974 161.156 62.6588 160.923 62.3942 160.637C62.1402 160.351 61.9708 160.023 61.9073 159.663C61.8438 159.304 61.8756 158.944 62.0132 158.563C62.1508 158.182 62.3624 157.886 62.6482 157.663C62.9339 157.43 63.2514 157.293 63.6218 157.24C63.9922 157.187 64.3627 157.24 64.7437 157.378C65.1141 157.515 65.4104 157.727 65.6538 157.991C65.8866 158.266 66.0348 158.573 66.0983 158.923C66.1618 159.272 66.1195 159.663 65.9607 160.066C65.9396 160.108 65.9184 160.15 65.8972 160.203C65.8761 160.256 65.8443 160.298 65.8231 160.351L62.7646 159.198L63.008 158.563L65.4951 159.505L64.9977 159.536C65.0823 159.346 65.1035 159.155 65.0823 158.986C65.0612 158.806 64.9871 158.658 64.8812 158.52C64.7754 158.383 64.6272 158.288 64.4367 158.214C64.2462 158.139 64.0663 158.118 63.897 158.15C63.7277 158.182 63.5689 158.245 63.4313 158.372C63.2938 158.489 63.1879 158.647 63.1138 158.849L63.0503 159.018C62.9763 159.23 62.9445 159.431 62.9868 159.621C63.0186 159.812 63.1033 159.981 63.2408 160.119C63.3784 160.256 63.5477 160.373 63.7806 160.468C63.9817 160.542 64.1616 160.574 64.3415 160.574C64.5108 160.574 64.6907 160.531 64.8601 160.457L65.1987 161.304C64.9553 161.431 64.6802 161.505 64.3732 161.505C64.0663 161.505 63.7488 161.452 63.4102 161.325L63.4313 161.314Z" fill="#009FE3"/>
<path d="M67.4741 162.712C67.1461 162.606 66.8392 162.469 66.564 162.299C66.2888 162.13 66.0772 161.95 65.9396 161.781L66.5534 161.103C66.7016 161.262 66.8815 161.41 67.1037 161.558C67.326 161.707 67.5482 161.812 67.7811 161.886C68.0351 161.971 68.2256 161.992 68.3526 161.961C68.4796 161.929 68.5536 161.865 68.596 161.749C68.6277 161.664 68.596 161.58 68.5325 161.505C68.4584 161.431 68.3631 161.368 68.2361 161.294C68.1091 161.23 67.961 161.156 67.8022 161.082C67.6435 161.008 67.4847 160.923 67.3366 160.828C67.1884 160.733 67.0508 160.627 66.9344 160.5C66.818 160.373 66.7439 160.235 66.7016 160.066C66.6592 159.897 66.6804 159.706 66.7439 159.495C66.818 159.251 66.9556 159.061 67.1567 158.913C67.3577 158.764 67.6011 158.68 67.8975 158.659C68.1938 158.637 68.5219 158.68 68.8923 158.796C69.1569 158.881 69.4215 158.987 69.6649 159.135C69.9189 159.272 70.12 159.431 70.2681 159.59L69.6437 160.267C69.4955 160.108 69.3368 159.971 69.1569 159.876C68.977 159.77 68.8076 159.696 68.6383 159.643C68.3843 159.558 68.1832 159.537 68.0456 159.569C67.9081 159.6 67.8234 159.664 67.7916 159.77C67.7599 159.865 67.7916 159.95 67.8551 160.024C67.9292 160.098 68.0245 160.172 68.1515 160.235C68.2785 160.299 68.4266 160.373 68.5854 160.447C68.7441 160.521 68.9029 160.606 69.0511 160.701C69.1992 160.796 69.3368 160.902 69.4532 161.029C69.5696 161.156 69.6437 161.294 69.686 161.453C69.7284 161.622 69.7178 161.812 69.6437 162.024C69.5696 162.257 69.432 162.447 69.231 162.585C69.0299 162.723 68.7759 162.807 68.4796 162.828C68.1726 162.85 67.834 162.797 67.453 162.68L67.4741 162.712Z" fill="#009FE3"/>
<path d="M71.3899 163.812C71.0936 163.738 70.8396 163.622 70.6491 163.463C70.4586 163.304 70.321 163.125 70.247 162.913C70.1729 162.701 70.1623 162.49 70.2152 162.267C70.2681 162.034 70.3739 161.855 70.5327 161.706C70.6914 161.558 70.9031 161.463 71.1783 161.431C71.4534 161.4 71.7815 161.431 72.1837 161.527L73.2103 161.781L73.0515 162.437L72.1308 162.214C71.8662 162.151 71.6757 162.151 71.5487 162.214C71.4323 162.278 71.3476 162.373 71.3159 162.5C71.2841 162.648 71.3159 162.775 71.4005 162.892C71.4958 163.008 71.6334 163.082 71.8344 163.135C72.0249 163.177 72.2154 163.177 72.3848 163.135C72.5647 163.082 72.7023 162.976 72.8081 162.818L72.8504 163.389C72.7128 163.611 72.5118 163.76 72.2578 163.844C72.0038 163.918 71.7074 163.918 71.3688 163.844L71.3899 163.812ZM72.5964 164.045L72.7869 163.283L72.7552 163.103L73.0938 161.738C73.1573 161.495 73.1256 161.294 73.0092 161.114C72.8928 160.944 72.6811 160.817 72.3848 160.743C72.1731 160.69 71.9614 160.669 71.7498 160.69C71.5275 160.701 71.337 160.754 71.1677 160.828L70.9666 159.939C71.2206 159.833 71.5064 159.78 71.8239 159.78C72.1414 159.78 72.4588 159.812 72.7658 159.886C73.3584 160.034 73.7923 160.288 74.0463 160.648C74.3109 161.008 74.3638 161.484 74.2157 162.087L73.6653 164.32L72.607 164.056L72.5964 164.045Z" fill="#009FE3"/>
<path d="M78.0361 160.997C78.3536 161.05 78.6182 161.167 78.851 161.336C79.0733 161.505 79.2426 161.727 79.3379 162.013C79.4331 162.299 79.4437 162.638 79.3802 163.04L78.978 165.305L77.8245 165.104L78.1949 163.008C78.2478 162.691 78.2266 162.437 78.1102 162.267C77.9938 162.087 77.8139 161.981 77.5599 161.929C77.38 161.897 77.2106 161.907 77.0519 161.96C76.8931 162.013 76.7555 162.108 76.6497 162.246C76.5439 162.384 76.4698 162.574 76.4169 162.828L76.0676 164.786L74.9141 164.585L75.6126 160.616L76.7132 160.807L76.5227 161.907L76.3745 161.537C76.565 161.294 76.8085 161.124 77.0942 161.029C77.38 160.934 77.6975 160.913 78.0361 160.976V160.997Z" fill="#009FE3"/>
<path d="M81.4228 165.664C81.1159 165.633 80.8513 165.548 80.6397 165.421C80.428 165.294 80.2692 165.125 80.174 164.934C80.0682 164.733 80.0364 164.521 80.0576 164.299C80.0787 164.066 80.1634 163.865 80.301 163.696C80.4386 163.527 80.6397 163.41 80.9042 163.336C81.1688 163.262 81.5075 163.251 81.9202 163.294L82.9786 163.41L82.9045 164.077L81.9626 163.971C81.6874 163.939 81.4969 163.971 81.3911 164.045C81.2747 164.119 81.2217 164.225 81.2006 164.363C81.19 164.511 81.2323 164.638 81.3382 164.733C81.444 164.839 81.6027 164.892 81.7932 164.913C81.9943 164.934 82.1742 164.913 82.3436 164.839C82.5129 164.765 82.6293 164.638 82.714 164.469L82.8304 165.029C82.7246 165.273 82.5447 165.442 82.3118 165.559C82.0684 165.675 81.7827 165.707 81.4228 165.675V165.664ZM82.6505 165.738L82.7352 164.955L82.6822 164.775L82.8304 163.378C82.8621 163.135 82.7987 162.934 82.6611 162.775C82.5235 162.616 82.3012 162.521 81.9837 162.489C81.7721 162.468 81.5604 162.479 81.3487 162.521C81.1371 162.564 80.9466 162.638 80.7878 162.733L80.4703 161.876C80.7032 161.738 80.9783 161.653 81.2958 161.6C81.6133 161.548 81.9308 161.548 82.2483 161.579C82.8622 161.643 83.3172 161.844 83.6241 162.161C83.9311 162.489 84.0475 162.955 83.984 163.558L83.7406 165.844L82.6505 165.728V165.738Z" fill="#009FE3"/>
<path d="M84.9683 165.939L85.3069 160.394L86.4711 160.468L86.1324 166.013L84.9683 165.939Z" fill="#009FE3"/>
<path d="M89.3391 166.162C88.884 166.162 88.4819 166.067 88.1326 165.876C87.794 165.696 87.5294 165.443 87.3389 165.125C87.1484 164.808 87.0637 164.458 87.0637 164.056C87.0637 163.654 87.159 163.305 87.3495 162.987C87.54 162.68 87.794 162.437 88.122 162.257C88.4501 162.088 88.8205 162.003 89.2333 162.003C89.6249 162.003 89.9847 162.098 90.2916 162.268C90.6091 162.437 90.8525 162.68 91.0324 162.998C91.2124 163.305 91.297 163.686 91.297 164.12C91.297 164.162 91.297 164.215 91.297 164.278C91.297 164.331 91.2864 164.384 91.2759 164.437L88.0056 164.395V163.717L90.6726 163.749L90.2175 163.95C90.2175 163.739 90.1858 163.559 90.1011 163.4C90.0165 163.241 89.9 163.125 89.7519 163.03C89.6037 162.945 89.4238 162.892 89.2333 162.892C89.0322 162.892 88.8523 162.934 88.7041 163.019C88.5454 163.104 88.429 163.231 88.3443 163.379C88.2596 163.527 88.2173 163.717 88.2067 163.94V164.12C88.2067 164.342 88.249 164.543 88.3443 164.702C88.4395 164.871 88.5771 164.998 88.7465 165.083C88.9158 165.167 89.1275 165.22 89.3709 165.22C89.5825 165.22 89.7624 165.189 89.9318 165.125C90.0905 165.062 90.2387 164.966 90.3763 164.839L90.9901 165.517C90.7996 165.728 90.5668 165.887 90.2916 165.993C90.0059 166.099 89.6884 166.152 89.3285 166.152L89.3391 166.162Z" fill="#009FE3"/>
<path d="M93.6359 166.087C93.2867 166.108 92.9586 166.087 92.6411 166.013C92.3236 165.95 92.0696 165.854 91.8685 165.738L92.2072 164.891C92.3977 164.997 92.6305 165.071 92.8845 165.135C93.1385 165.198 93.3925 165.219 93.6359 165.209C93.9005 165.198 94.091 165.156 94.2074 165.082C94.3133 165.008 94.3662 164.912 94.3662 164.807C94.3662 164.711 94.3133 164.648 94.2286 164.606C94.1439 164.563 94.0275 164.531 93.8794 164.51C93.7312 164.489 93.5724 164.479 93.4031 164.457C93.2232 164.436 93.0539 164.415 92.8739 164.383C92.694 164.352 92.5353 164.288 92.3871 164.214C92.2389 164.14 92.1119 164.034 92.0167 163.896C91.9214 163.759 91.8685 163.568 91.8579 163.346C91.8474 163.092 91.9109 162.859 92.0484 162.658C92.186 162.457 92.3977 162.288 92.6623 162.171C92.9269 162.055 93.2549 161.981 93.6465 161.96C93.9217 161.949 94.2074 161.96 94.4932 162.013C94.7789 162.066 95.0223 162.14 95.2234 162.235L94.8636 163.082C94.6731 162.986 94.472 162.912 94.2709 162.88C94.0698 162.849 93.8794 162.828 93.6994 162.838C93.4349 162.849 93.2338 162.891 93.1174 162.965C93.0009 163.039 92.948 163.134 92.948 163.24C92.948 163.336 93.0009 163.41 93.0962 163.463C93.1914 163.515 93.3079 163.547 93.456 163.558C93.6042 163.568 93.7629 163.59 93.9428 163.611C94.1228 163.632 94.2921 163.653 94.4614 163.695C94.6308 163.738 94.7895 163.791 94.9483 163.865C95.0964 163.939 95.2234 164.045 95.3187 164.193C95.4139 164.33 95.4668 164.521 95.4774 164.743C95.488 164.987 95.4245 165.209 95.2869 165.41C95.1493 165.611 94.9377 165.77 94.6625 165.897C94.3873 166.024 94.0487 166.098 93.6465 166.108L93.6359 166.087Z" fill="#009FE3"/>
<path d="M101.076 165.305L100.97 164.522L100.875 164.363L100.684 162.966C100.653 162.723 100.547 162.532 100.377 162.416C100.208 162.299 99.9647 162.257 99.6578 162.299C99.4461 162.331 99.245 162.394 99.0439 162.49C98.8429 162.585 98.6841 162.701 98.5465 162.828L98.028 162.077C98.229 161.886 98.4724 161.738 98.7688 161.611C99.0651 161.484 99.372 161.4 99.6895 161.357C100.293 161.273 100.79 161.357 101.161 161.59C101.542 161.834 101.764 162.257 101.849 162.86L102.166 165.136L101.087 165.284L101.076 165.305ZM99.8694 165.527C99.5625 165.569 99.2874 165.548 99.0545 165.474C98.8217 165.4 98.6206 165.273 98.483 165.114C98.3455 164.956 98.2502 164.755 98.2185 164.522C98.1867 164.289 98.2185 164.077 98.3031 163.876C98.3878 163.675 98.5571 163.516 98.8005 163.379C99.044 163.241 99.3614 163.146 99.7742 163.093L100.833 162.945L100.928 163.612L99.9964 163.739C99.7213 163.781 99.5414 163.844 99.4567 163.95C99.372 164.056 99.3297 164.172 99.3509 164.31C99.372 164.458 99.4461 164.564 99.5731 164.638C99.7001 164.712 99.8694 164.733 100.06 164.702C100.25 164.67 100.43 164.606 100.568 164.49C100.706 164.384 100.801 164.225 100.843 164.035L101.097 164.553C101.044 164.807 100.917 165.019 100.716 165.188C100.515 165.358 100.24 165.464 99.88 165.517L99.8694 165.527Z" fill="#009FE3"/>
<path d="M105.69 164.511L104.452 159.42L106.939 158.817C107.574 158.658 108.093 158.669 108.474 158.828C108.855 158.997 109.098 159.272 109.193 159.674C109.257 159.939 109.246 160.193 109.162 160.415C109.077 160.637 108.939 160.838 108.728 160.997C108.527 161.156 108.273 161.272 107.987 161.346L108.05 161.008C108.368 160.934 108.664 160.913 108.939 160.965C109.204 161.008 109.437 161.124 109.627 161.294C109.818 161.463 109.945 161.696 110.019 161.992C110.125 162.426 110.029 162.807 109.754 163.135C109.468 163.463 108.992 163.706 108.326 163.876L105.69 164.521V164.511ZM106.643 163.336L108.029 162.997C108.325 162.923 108.548 162.817 108.685 162.68C108.823 162.542 108.865 162.362 108.812 162.151C108.759 161.929 108.643 161.791 108.452 161.727C108.273 161.664 108.029 161.664 107.722 161.738L106.251 162.098L106.04 161.241L107.299 160.934C107.585 160.86 107.796 160.764 107.923 160.627C108.05 160.489 108.093 160.32 108.04 160.119C107.987 159.918 107.881 159.78 107.701 159.727C107.521 159.664 107.299 159.674 107.013 159.738L105.838 160.024L106.643 163.336Z" fill="#009FE3"/>
<path d="M113.723 162.299L113.48 161.548L113.353 161.41L112.919 160.066C112.845 159.833 112.707 159.664 112.527 159.579C112.337 159.494 112.093 159.494 111.797 159.59C111.596 159.653 111.405 159.748 111.225 159.875C111.045 160.002 110.908 160.14 110.802 160.299L110.167 159.643C110.326 159.42 110.537 159.23 110.813 159.06C111.077 158.891 111.373 158.754 111.67 158.658C112.252 158.468 112.749 158.468 113.162 158.637C113.575 158.806 113.871 159.187 114.062 159.77L114.76 161.96L113.723 162.288V162.299ZM112.569 162.733C112.273 162.828 112.008 162.86 111.754 162.818C111.511 162.786 111.299 162.701 111.13 162.564C110.961 162.426 110.834 162.246 110.77 162.024C110.696 161.802 110.686 161.579 110.749 161.378C110.802 161.167 110.94 160.976 111.151 160.807C111.363 160.637 111.67 160.489 112.061 160.362L113.077 160.034L113.278 160.68L112.379 160.965C112.114 161.05 111.956 161.145 111.881 161.262C111.807 161.378 111.797 161.505 111.839 161.632C111.881 161.77 111.977 161.876 112.114 161.918C112.252 161.96 112.421 161.96 112.612 161.897C112.802 161.833 112.961 161.738 113.077 161.611C113.204 161.473 113.268 161.315 113.268 161.114L113.607 161.579C113.607 161.844 113.511 162.077 113.342 162.278C113.173 162.479 112.919 162.627 112.58 162.743L112.569 162.733Z" fill="#009FE3"/>
<path d="M117.237 161.113C116.919 161.24 116.591 161.314 116.274 161.357C115.945 161.399 115.681 161.388 115.459 161.335L115.512 160.425C115.723 160.457 115.967 160.468 116.231 160.436C116.496 160.415 116.739 160.362 116.961 160.267C117.215 160.171 117.374 160.076 117.459 159.97C117.544 159.875 117.565 159.769 117.522 159.663C117.491 159.579 117.417 159.526 117.321 159.515C117.226 159.505 117.099 159.515 116.961 159.536C116.824 159.568 116.665 159.6 116.496 159.642C116.326 159.684 116.147 159.716 115.977 159.727C115.808 159.737 115.628 159.748 115.459 159.727C115.289 159.706 115.141 159.642 115.004 159.536C114.866 159.43 114.76 159.272 114.675 159.06C114.58 158.827 114.57 158.584 114.644 158.351C114.707 158.118 114.855 157.896 115.067 157.695C115.279 157.494 115.575 157.324 115.935 157.187C116.199 157.092 116.464 157.017 116.75 156.975C117.036 156.933 117.29 156.922 117.512 156.954L117.438 157.875C117.226 157.843 117.014 157.843 116.813 157.875C116.612 157.906 116.432 157.949 116.263 158.012C116.009 158.108 115.84 158.213 115.755 158.319C115.67 158.425 115.649 158.531 115.681 158.637C115.713 158.732 115.787 158.785 115.893 158.806C115.998 158.817 116.115 158.806 116.263 158.785C116.411 158.753 116.57 158.721 116.739 158.679C116.909 158.637 117.088 158.605 117.258 158.594C117.427 158.573 117.607 158.573 117.766 158.594C117.935 158.616 118.083 158.679 118.221 158.785C118.348 158.891 118.464 159.049 118.549 159.261C118.634 159.494 118.644 159.716 118.581 159.949C118.507 160.182 118.358 160.404 118.136 160.605C117.914 160.806 117.618 160.986 117.237 161.124V161.113Z" fill="#009FE3"/>
<path d="M121.671 159.24C121.258 159.431 120.856 159.516 120.464 159.494C120.073 159.473 119.734 159.357 119.427 159.156C119.12 158.955 118.888 158.669 118.729 158.299C118.56 157.939 118.496 157.568 118.538 157.208C118.57 156.849 118.708 156.521 118.93 156.224C119.152 155.928 119.448 155.695 119.829 155.526C120.189 155.367 120.549 155.293 120.909 155.314C121.269 155.335 121.597 155.452 121.893 155.653C122.19 155.854 122.433 156.161 122.613 156.552C122.634 156.595 122.655 156.637 122.666 156.69C122.676 156.743 122.708 156.796 122.719 156.838L119.745 158.193L119.459 157.579L121.872 156.478L121.544 156.849C121.459 156.658 121.353 156.51 121.205 156.404C121.057 156.298 120.909 156.235 120.74 156.224C120.57 156.203 120.39 156.235 120.21 156.319C120.031 156.404 119.882 156.51 119.787 156.658C119.681 156.796 119.628 156.965 119.618 157.145C119.607 157.325 119.65 157.505 119.734 157.706L119.808 157.865C119.904 158.066 120.031 158.224 120.189 158.33C120.348 158.436 120.528 158.5 120.718 158.5C120.909 158.5 121.121 158.457 121.343 158.362C121.533 158.277 121.692 158.172 121.809 158.045C121.925 157.918 122.02 157.769 122.094 157.6L122.941 157.96C122.856 158.224 122.719 158.468 122.507 158.69C122.295 158.912 122.031 159.092 121.703 159.24H121.671Z" fill="#009FE3"/>
<path d="M127.788 156.097C127.46 156.287 127.121 156.382 126.772 156.382C126.423 156.382 126.095 156.298 125.788 156.118C125.481 155.938 125.227 155.663 125.015 155.303C124.804 154.943 124.698 154.583 124.698 154.223C124.698 153.864 124.782 153.535 124.962 153.239C125.142 152.943 125.396 152.689 125.724 152.509C126.021 152.34 126.317 152.255 126.603 152.255C126.899 152.255 127.185 152.361 127.46 152.551C127.735 152.742 127.989 153.049 128.222 153.461C128.455 153.864 128.592 154.234 128.635 154.573C128.677 154.911 128.624 155.208 128.476 155.462C128.328 155.716 128.106 155.927 127.799 156.107L127.788 156.097ZM127.481 155.165C127.65 155.07 127.777 154.943 127.873 154.795C127.957 154.636 128.01 154.467 128 154.276C128 154.086 127.936 153.885 127.82 153.684C127.703 153.483 127.566 153.334 127.396 153.239C127.238 153.144 127.068 153.102 126.888 153.102C126.709 153.102 126.539 153.154 126.37 153.25C126.201 153.345 126.074 153.472 125.989 153.62C125.894 153.768 125.851 153.948 125.862 154.128C125.862 154.319 125.925 154.509 126.042 154.721C126.158 154.922 126.296 155.07 126.465 155.165C126.634 155.271 126.804 155.313 126.984 155.313C127.164 155.313 127.333 155.261 127.492 155.165H127.481ZM128.846 155.409L128.434 154.7L127.852 153.652L127.195 152.657L126.021 150.625L127.037 150.043L129.809 154.848L128.846 155.409Z" fill="#009FE3"/>
<path d="M132.603 153.091C132.222 153.345 131.841 153.493 131.45 153.536C131.069 153.578 130.709 153.525 130.37 153.366C130.042 153.218 129.767 152.975 129.534 152.636C129.312 152.308 129.185 151.959 129.164 151.599C129.143 151.239 129.217 150.89 129.386 150.562C129.556 150.234 129.81 149.959 130.148 149.726C130.476 149.503 130.815 149.376 131.175 149.345C131.535 149.313 131.873 149.366 132.201 149.525C132.529 149.683 132.815 149.937 133.048 150.297C133.069 150.329 133.101 150.382 133.133 150.424C133.164 150.477 133.186 150.519 133.207 150.562L130.497 152.382L130.116 151.821L132.318 150.34L132.053 150.763C131.937 150.583 131.81 150.456 131.651 150.371C131.492 150.287 131.334 150.255 131.154 150.265C130.984 150.276 130.815 150.34 130.646 150.445C130.476 150.551 130.36 150.689 130.286 150.848C130.212 151.006 130.18 151.176 130.191 151.345C130.212 151.525 130.275 151.705 130.392 151.874L130.487 152.022C130.614 152.213 130.762 152.34 130.942 152.424C131.122 152.509 131.302 152.53 131.492 152.509C131.683 152.488 131.884 152.403 132.085 152.266C132.254 152.149 132.392 152.022 132.498 151.874C132.593 151.726 132.667 151.567 132.699 151.387L133.588 151.599C133.545 151.874 133.45 152.139 133.281 152.393C133.111 152.647 132.879 152.869 132.572 153.07L132.603 153.091Z" fill="#009FE3"/>
<path d="M134.413 144.636L134.498 143.165L135.461 142.36L135.112 144.054L134.413 144.636ZM136.308 150.425L134.741 144.911L135.662 144.149L140.816 146.668L139.842 147.483L135.408 145.154L135.778 144.847L137.26 149.631L136.308 150.425ZM136.488 148.806L136.138 147.906L138.223 146.17L139.049 146.678L136.488 148.806Z" fill="#009FE3"/>
<path d="M141.25 146.201L137.472 142.137L138.329 141.344L142.107 145.408L141.25 146.201Z" fill="#009FE3"/>
<path d="M144.404 143.217C144.107 143.524 143.779 143.725 143.42 143.841C143.06 143.958 142.7 143.968 142.351 143.884C141.991 143.799 141.673 143.619 141.388 143.344C141.102 143.058 140.911 142.741 140.816 142.391C140.721 142.042 140.731 141.682 140.837 141.322C140.943 140.963 141.144 140.624 141.44 140.328C141.737 140.021 142.065 139.809 142.425 139.693C142.785 139.576 143.144 139.566 143.494 139.64C143.853 139.724 144.171 139.904 144.457 140.179C144.742 140.465 144.933 140.783 145.028 141.132C145.113 141.481 145.113 141.841 145.007 142.211C144.901 142.582 144.7 142.91 144.404 143.217ZM143.716 142.55C143.853 142.402 143.949 142.254 143.991 142.084C144.033 141.915 144.023 141.735 143.97 141.555C143.917 141.375 143.8 141.195 143.642 141.037C143.472 140.878 143.303 140.772 143.113 140.719C142.933 140.677 142.753 140.666 142.583 140.719C142.414 140.772 142.266 140.857 142.128 141.005C141.991 141.143 141.906 141.301 141.853 141.471C141.811 141.64 141.811 141.82 141.864 142C141.917 142.18 142.023 142.349 142.192 142.518C142.361 142.677 142.531 142.783 142.721 142.836C142.912 142.889 143.081 142.889 143.25 142.836C143.42 142.783 143.568 142.688 143.705 142.561L143.716 142.55Z" fill="#009FE3"/>
<path d="M147.896 139.376C147.6 139.725 147.272 139.968 146.912 140.116C146.552 140.265 146.192 140.307 145.832 140.243C145.473 140.191 145.145 140.032 144.838 139.767C144.531 139.503 144.319 139.206 144.203 138.868C144.086 138.529 144.065 138.169 144.139 137.809C144.213 137.449 144.383 137.111 144.647 136.793C144.901 136.497 145.197 136.275 145.536 136.148C145.875 136.021 146.213 135.978 146.573 136.042C146.923 136.105 147.272 136.275 147.6 136.55C147.632 136.582 147.674 136.613 147.716 136.656C147.759 136.698 147.79 136.73 147.833 136.772L145.716 139.259L145.197 138.815L146.923 136.793L146.785 137.27C146.626 137.132 146.467 137.047 146.288 137.005C146.118 136.973 145.949 136.984 145.78 137.037C145.61 137.09 145.473 137.195 145.335 137.354C145.208 137.502 145.123 137.672 145.092 137.841C145.06 138.01 145.081 138.18 145.145 138.349C145.208 138.518 145.324 138.667 145.483 138.804L145.621 138.921C145.79 139.069 145.97 139.153 146.161 139.185C146.351 139.217 146.531 139.185 146.711 139.122C146.891 139.048 147.06 138.91 147.219 138.73C147.356 138.571 147.452 138.413 147.505 138.243C147.558 138.074 147.579 137.905 147.568 137.714L148.478 137.672C148.521 137.947 148.489 138.233 148.394 138.518C148.298 138.804 148.129 139.09 147.896 139.365V139.376Z" fill="#009FE3"/>
<path d="M151.696 134.401L147.431 133.47L148.118 132.486L151.759 133.322L151.41 133.808L149.42 130.612L150.066 129.702L152.383 133.406L151.696 134.391V134.401Z" fill="#009FE3"/>
<path d="M154.754 129.882C154.511 130.274 154.225 130.57 153.897 130.771C153.569 130.973 153.22 131.068 152.849 131.068C152.489 131.068 152.129 130.962 151.791 130.75C151.452 130.539 151.198 130.274 151.018 129.957C150.849 129.639 150.764 129.29 150.785 128.919C150.807 128.549 150.923 128.189 151.135 127.84C151.346 127.501 151.6 127.247 151.907 127.067C152.214 126.887 152.553 126.803 152.913 126.803C153.272 126.803 153.632 126.919 154.003 127.152C154.045 127.173 154.087 127.205 154.13 127.237C154.172 127.268 154.214 127.3 154.257 127.332L152.542 130.115L151.96 129.766L153.347 127.501L153.283 127.999C153.103 127.882 152.934 127.819 152.754 127.819C152.574 127.819 152.415 127.85 152.256 127.925C152.108 128.009 151.971 128.136 151.875 128.306C151.77 128.475 151.717 128.644 151.706 128.824C151.706 129.004 151.738 129.163 151.833 129.322C151.918 129.48 152.055 129.607 152.246 129.724L152.394 129.819C152.585 129.935 152.775 129.999 152.966 129.999C153.156 129.999 153.336 129.946 153.505 129.84C153.675 129.734 153.812 129.586 153.95 129.374C154.056 129.195 154.13 129.015 154.161 128.845C154.193 128.676 154.183 128.496 154.151 128.316L155.05 128.136C155.135 128.401 155.146 128.687 155.093 128.983C155.04 129.279 154.923 129.586 154.733 129.893L154.754 129.882Z" fill="#009FE3"/>
<path d="M156.172 127.342L152.627 125.426L153.156 124.442L154.162 124.982L153.791 124.961C153.601 124.717 153.495 124.453 153.495 124.146C153.495 123.839 153.579 123.521 153.759 123.193L154.712 123.712C154.712 123.712 154.659 123.786 154.627 123.818C154.595 123.85 154.585 123.892 154.564 123.924C154.405 124.209 154.363 124.485 154.437 124.749C154.511 125.003 154.712 125.225 155.051 125.405L156.723 126.305L156.172 127.331V127.342Z" fill="#009FE3"/>
<path d="M158.702 122.4L157.993 122.062H157.802L156.532 121.448C156.31 121.342 156.098 121.321 155.908 121.405C155.717 121.479 155.548 121.659 155.421 121.945C155.326 122.136 155.273 122.347 155.241 122.559C155.209 122.771 155.22 122.972 155.252 123.162L154.341 123.183C154.289 122.919 154.299 122.622 154.352 122.316C154.405 122.009 154.511 121.702 154.648 121.416C154.913 120.866 155.252 120.495 155.654 120.315C156.056 120.135 156.543 120.178 157.093 120.442L159.167 121.437L158.702 122.421V122.4ZM158.225 123.533C158.088 123.808 157.929 124.03 157.739 124.189C157.548 124.348 157.336 124.443 157.125 124.464C156.903 124.496 156.691 124.464 156.49 124.358C156.278 124.252 156.119 124.115 156.003 123.924C155.887 123.744 155.844 123.511 155.865 123.236C155.887 122.961 155.982 122.644 156.162 122.273L156.617 121.31L157.22 121.596L156.818 122.443C156.701 122.697 156.659 122.876 156.691 123.014C156.723 123.141 156.807 123.236 156.924 123.3C157.061 123.363 157.188 123.363 157.315 123.3C157.442 123.236 157.548 123.109 157.643 122.929C157.728 122.749 157.77 122.57 157.749 122.39C157.739 122.21 157.665 122.051 157.527 121.913L158.098 121.987C158.289 122.167 158.395 122.4 158.427 122.654C158.458 122.919 158.395 123.205 158.236 123.522L158.225 123.533Z" fill="#009FE3"/>
</svg>
