<svg width="1436" height="1471" viewBox="0 0 1436 1471" fill="none" xmlns="http://www.w3.org/2000/svg">
<path d="M1044.66 1070.62C1036.94 1035.04 976.52 1020.14 976.52 1020.14C1018.58 954.444 986.368 866.201 978.117 886.882C961.681 928.177 926.746 944.004 934.199 936.889C941.651 929.773 970.997 881.097 970.331 844.257C969.799 815.663 941.385 789.529 937.459 821.448C933.6 853.367 891.278 866.933 863.862 878.902C836.447 890.872 804.107 908.427 803.707 904.637C802.709 895.327 792.994 869.859 772.698 840.733C750.34 808.681 735.967 760.47 728.514 734.934C727.915 732.806 725.386 732.806 723.59 732.939C721.793 732.806 719.93 733.737 719.331 735.865C711.878 761.401 698.237 806.154 674.547 840.733C654.451 869.992 644.536 895.327 643.538 904.637C643.139 908.427 610.799 890.872 583.383 878.902C555.968 866.933 513.646 853.434 509.787 821.448C505.927 789.529 477.447 815.663 476.914 844.257C476.249 881.03 505.661 929.773 513.047 936.889C520.433 944.004 485.631 928.177 469.129 886.882C460.877 866.201 428.671 954.444 470.726 1020.14C470.726 1020.14 410.371 1034.97 402.586 1070.62C398.26 1090.37 454.689 1066.76 499.007 1100.27C543.324 1133.86 640.877 1225.49 721.261 1190.64C722.059 1190.31 722.791 1189.91 723.523 1189.51C724.255 1189.91 724.987 1190.31 725.786 1190.64C806.17 1225.49 903.722 1133.86 948.039 1100.27C992.357 1066.69 1048.79 1090.37 1044.46 1070.62H1044.66Z" fill="white"/>
<path d="M1031.42 1063.43C1031.02 1062.97 1030.75 1062.7 1030.49 1062.57C1009.19 1047.47 989.762 1038.43 967.47 1039.29C966.672 1039.29 965.873 1039.29 964.808 1039.36C964.542 1039.36 964.276 1039.43 964.01 1039.43C963.344 1039.43 962.679 1039.56 962.013 1039.63C961.348 1039.69 960.683 1039.76 960.017 1039.89C955.692 1040.49 951.234 1041.42 946.575 1042.75C950.768 1037.63 956.823 1027.99 960.283 1021.07C973.459 995.074 984.971 967.61 988.697 938.484C990.095 926.515 990.095 914.345 986.701 902.642L986.036 900.447C985.703 898.186 983.174 896.524 981.045 897.056C979.514 897.255 977.917 898.851 977.718 900.514C976.786 904.77 975.256 908.959 973.592 913.015C960.949 943.538 934.265 962.822 902.125 967.477C903.123 962.357 905.851 957.702 908.979 953.18C922.886 934.561 937.06 915.01 946.243 893.332C952.697 878.968 958.22 864.006 960.549 847.914C961.348 840.001 963.012 825.704 955.293 820.517C954.76 820.184 953.829 819.918 952.897 819.785C950.901 819.586 948.904 820.783 948.172 821.714C946.509 823.709 946.376 825.172 946.043 826.502C943.448 847.182 922.886 859.019 906.317 868.927C879.3 884.022 850.088 894.662 822.14 908.56C811.959 913.88 802.044 919.732 793.46 927.379C794.525 914.412 792.794 901.312 789.268 888.81C786.207 878.304 781.482 868.063 775.294 859.019C771.833 853.965 767.308 848.712 763.848 843.725C749.408 823.376 739.826 799.836 733.504 775.697C730.909 767.319 726.85 750.362 723.989 742.116C723.989 741.118 723.39 741.052 723.39 741.983C720.529 750.229 716.203 767.319 713.608 775.697C707.287 799.77 697.704 823.31 683.264 843.725C679.738 848.778 675.279 853.965 671.819 859.019C665.631 868.063 660.906 878.304 657.845 888.81C654.318 901.312 652.588 914.478 653.653 927.379C645.069 919.732 635.154 913.813 624.973 908.56C597.025 894.662 567.879 884.089 540.796 868.927C524.226 859.086 503.665 847.249 501.069 826.502C500.737 825.105 500.604 823.709 498.94 821.714C498.208 820.783 496.212 819.586 494.215 819.785C493.284 819.852 492.352 820.184 491.82 820.517C484.101 825.77 485.698 839.801 486.563 847.914C488.892 864.006 494.482 878.968 500.87 893.332C510.053 914.944 524.16 934.561 538.134 953.18C541.261 957.635 543.99 962.29 544.988 967.477C512.914 962.822 486.23 943.538 473.521 913.015C471.857 908.959 470.326 904.77 469.395 900.514C469.129 898.785 467.598 897.255 466.068 897.056C464.138 896.59 461.742 897.92 461.21 899.915L461.077 900.447L460.412 902.642C457.018 914.345 457.018 926.515 458.415 938.484C462.142 967.61 473.654 995.14 486.829 1021.07C490.489 1028.19 494.482 1035.24 498.674 1042.22C467.864 1033.84 443.842 1043.22 416.759 1062.5C413.765 1064.56 414.231 1069.15 417.824 1070.28C420.086 1070.95 423.879 1069.95 425.942 1069.82C467.997 1062.44 497.809 1076 528.352 1104.2C575.864 1146.96 628.899 1191.77 697.638 1182.07C706.555 1180.6 715.205 1178.08 723.656 1174.88C732.041 1178.08 740.758 1180.6 749.674 1182.07C818.28 1191.77 871.448 1146.89 918.96 1104.2C949.437 1076.07 979.315 1062.44 1021.37 1069.82C1022.57 1070.02 1025.63 1070.35 1026.76 1070.48C1027.69 1070.62 1028.29 1070.62 1029.42 1070.28C1030.69 1070.02 1032.35 1068.35 1032.42 1066.82C1032.62 1065.16 1032.02 1064.3 1031.42 1063.37V1063.43Z" fill="#61B22F" stroke="#1D1D1B" stroke-miterlimit="10"/>
<path d="M721.327 704.745C721.327 704.745 720.928 704.545 720.928 704.346V620.958C720.928 620.958 721.127 620.559 721.327 620.559C721.527 620.559 721.726 620.758 721.726 620.958V704.346C721.726 704.346 721.527 704.745 721.327 704.745Z" stroke="#13130A" stroke-width="1.14" stroke-miterlimit="10"/>
<path d="M840.705 727.221C840.705 727.221 840.639 727.221 840.572 727.221C840.373 727.154 840.239 726.888 840.373 726.689L857.94 682.002C857.94 682.002 858.206 681.67 858.472 681.803C858.672 681.869 858.805 682.135 858.672 682.335L841.105 727.021C841.105 727.021 840.905 727.287 840.705 727.287V727.221Z" stroke="#13130A" stroke-width="1.14" stroke-miterlimit="10"/>
<path d="M596.226 727.221C596.226 727.221 595.893 727.155 595.827 726.955L578.259 682.269C578.259 682.269 578.259 681.803 578.459 681.737C578.659 681.67 578.925 681.737 578.991 681.936L596.559 726.623C596.559 726.623 596.559 727.088 596.359 727.155C596.359 727.155 596.292 727.155 596.226 727.155V727.221Z" stroke="#13130A" stroke-width="1.14" stroke-miterlimit="10"/>
<path d="M493.816 773.836C493.816 773.836 493.617 773.836 493.55 773.703L436.589 712.525C436.589 712.525 436.456 712.126 436.589 711.993C436.722 711.86 436.988 711.86 437.121 711.993L494.082 773.171C494.082 773.171 494.215 773.57 494.082 773.703C494.016 773.77 493.883 773.836 493.816 773.836Z" stroke="#13130A" stroke-width="1.14" stroke-miterlimit="10"/>
<path d="M434.659 845.787C434.659 845.787 434.526 845.787 434.46 845.787L392.538 821.383C392.538 821.383 392.271 821.05 392.404 820.851C392.471 820.651 392.737 820.585 392.937 820.718L434.859 845.122C434.859 845.122 435.125 845.455 434.992 845.654C434.925 845.787 434.792 845.854 434.659 845.854V845.787Z" stroke="#13130A" stroke-width="1.14" stroke-miterlimit="10"/>
<path d="M401.987 918.336L318.808 905.635C318.808 905.635 318.475 905.436 318.475 905.17C318.475 904.97 318.675 904.771 318.941 904.837L402.12 917.538C402.12 917.538 402.452 917.738 402.452 918.004C402.452 918.203 402.253 918.336 402.053 918.336H401.987Z" stroke="#13130A" stroke-width="1.14" stroke-miterlimit="10"/>
<path d="M939.522 779.821C939.522 779.821 939.322 779.821 939.256 779.754C939.056 779.621 939.056 779.355 939.256 779.222L992.024 714.254C992.024 714.254 992.424 714.054 992.557 714.254C992.756 714.387 992.756 714.653 992.557 714.786L939.788 779.754C939.788 779.754 939.588 779.887 939.455 779.887L939.522 779.821Z" stroke="#13130A" stroke-width="1.14" stroke-miterlimit="10"/>
<path d="M990.427 830.892C990.427 830.892 990.161 830.825 990.094 830.692C989.961 830.493 990.094 830.293 990.228 830.16L1032.82 806.687C1032.82 806.687 1033.21 806.687 1033.35 806.82C1033.48 807.019 1033.35 807.219 1033.21 807.352L990.627 830.825C990.627 830.825 990.494 830.825 990.427 830.825V830.892Z" stroke="#13130A" stroke-width="1.14" stroke-miterlimit="10"/>
<path d="M1008.33 919.001C1008.33 919.001 1007.99 918.935 1007.93 918.735C1007.86 918.536 1007.93 918.27 1008.13 918.203L1086.85 888.412C1086.85 888.412 1087.31 888.412 1087.38 888.612C1087.45 888.811 1087.38 889.077 1087.18 889.144L1008.46 918.935C1008.46 918.935 1008.39 918.935 1008.33 918.935V919.001Z" stroke="#13130A" stroke-width="1.14" stroke-miterlimit="10"/>
<path d="M652.588 920.863C691.183 963.887 692.381 1026.99 686.991 1081.46C689.786 1034.04 686.458 982.706 660.24 941.81C656.647 936.224 652.255 930.705 647.73 926.649L652.588 920.863Z" fill="#1D1D1B"/>
<path d="M469.728 1036.3C481.705 1034.77 495.879 1038.83 506.992 1042.49C538.4 1054.39 567.746 1070.88 596.625 1087.64C576.795 1077.47 556.766 1067.76 536.271 1059.25C516.84 1051.8 496.877 1042.82 475.783 1042.49C475.317 1042.49 474.053 1042.36 474.253 1042.29L470.06 1036.9L469.661 1036.3H469.728Z" fill="#1D1D1B"/>
<path d="M542.26 954.179C557.897 978.583 560.093 1007.84 560.559 1035.84C557.831 1009.7 554.637 980.246 538.533 958.967L543.125 954.179H542.26Z" fill="#1D1D1B"/>
<path d="M796.121 929.641C757.593 969.806 754 1031.58 756.794 1084.45C751.404 1029.99 752.602 966.813 791.197 923.855L796.121 929.641Z" fill="#1D1D1B"/>
<path d="M971.795 1042.69C967.536 1042.09 961.548 1043.09 956.956 1043.95C918.894 1052.4 883.692 1069.88 848.89 1086.64C868.254 1075.74 887.884 1065.16 908.114 1055.72C924.683 1048.14 941.718 1040.76 959.684 1036.77C962.28 1036.3 965.607 1037.3 968.268 1037.23C970.265 1037.17 971.596 1036.44 973.925 1036.9L971.795 1042.75V1042.69Z" fill="#1D1D1B"/>
<path d="M906.982 965.217C890.812 986.496 886.62 1015.69 883.892 1041.76C883.892 1027.92 884.557 1014.03 886.953 1000.33C889.614 986.031 892.742 972.665 901.326 960.097L906.982 965.15V965.217Z" fill="#1D1D1B"/>
<path d="M397.595 551.334C403.051 560.644 406.379 569.089 408.242 576.337C409.772 583.586 409.439 590.169 406.711 595.888C403.983 601.607 398.793 607.325 390.874 613.377C385.085 617.566 379.961 620.625 375.037 622.088C370.179 623.617 365.588 624.814 360.73 626.011C356.138 627.208 351.281 629.004 346.157 631.73C341.299 634.124 335.843 638.978 330.054 645.562C327.924 641.971 325.795 638.646 324.264 636.252C322.734 633.858 320.937 631.73 318.808 629.602C316.678 627.807 314.549 626.011 311.488 624.814C308.76 623.285 305.1 621.822 300.575 620.625C305.166 618.231 309.092 616.436 312.42 614.906C315.481 613.377 318.209 611.581 320.937 609.786C323.399 607.99 325.795 606.195 328.523 603.734C330.985 601.341 333.98 598.348 337.972 594.425C339.17 598.016 341.299 601.341 343.761 604.333C346.224 607.325 349.218 609.121 352.545 610.65C355.872 611.847 359.532 612.446 363.192 612.18C366.852 611.914 370.778 610.052 374.771 607.059C380.56 602.538 383.887 598.016 384.486 593.494C385.085 588.972 383.887 583.852 380.56 578.133C377.233 572.414 372.375 565.498 365.654 557.984C358.933 550.47 351.347 541.093 343.163 529.988C325.262 534.178 307.895 535.707 290.86 533.912C273.825 532.116 259.252 525.466 247.673 512.233C240.686 504.387 236.095 495.343 233.965 484.504C231.836 473.665 232.435 462.227 235.762 450.191C239.089 438.155 245.477 426.119 254.594 414.082C263.71 402.312 275.555 391.473 290.128 382.164C312.287 368.332 333.58 360.818 353.011 358.69C372.175 356.894 391.273 358.091 409.839 362.879C412.301 355.631 415.029 349.646 418.024 344.193C421.085 339.073 424.678 333.953 428.937 329.431C433.195 324.909 438.652 320.121 445.04 315.865C451.428 311.343 459.613 306.555 469.661 301.435C473.321 304.76 475.118 306.555 478.777 309.88C467.864 317.727 459.946 324.909 454.489 330.96C449.299 337.277 445.972 342.996 444.441 348.449C442.911 353.902 442.911 359.288 444.108 365.007C445.639 370.393 447.436 376.777 449.898 383.36C462.94 418.006 476.315 452.917 489.424 487.496C491.886 493.813 495.214 498.668 499.14 502.525C503.398 506.116 508.855 508.842 515.842 510.371C516.175 510.371 516.774 510.039 517.372 509.44C518.304 508.51 519.169 507.645 520.101 506.448C521.032 505.251 522.23 504.054 523.428 502.857C524.626 501.66 525.89 500.729 527.354 500.131C530.681 501.926 532.544 502.857 535.871 504.653C527.088 516.09 522.829 522.142 514.91 533.845C514.578 534.444 513.979 535.375 513.38 536.572C512.448 537.769 511.849 539.298 510.652 540.761C509.72 542.29 508.855 543.487 508.189 544.95C507.258 546.147 506.992 547.078 506.659 547.344C498.74 544.618 492.086 541.293 486.896 537.702C481.705 534.111 477.18 529.855 473.52 525.666C469.861 521.477 466.533 516.622 464.071 511.834C461.343 507.047 458.881 501.926 456.153 496.473C453.424 490.755 452.227 487.762 449.765 482.043C437.321 489.89 425.743 496.806 414.497 502.791C402.319 509.44 390.209 514.827 378.031 519.349C385.018 530.786 391.739 541.958 397.196 551.268L397.595 551.334ZM316.479 484.504C313.152 474.862 311.621 465.219 311.887 455.311C312.486 445.403 314.616 434.83 318.542 423.991C322.468 413.152 327.991 400.517 335.244 386.685C319.141 389.079 304.235 394.798 291.192 403.243C281.144 409.893 272.96 417.407 266.571 425.853C260.183 434.298 255.658 443.009 253.196 451.72C250.734 460.432 250.135 468.611 251.4 476.391C252.597 484.238 255.658 491.154 260.516 496.872C269.965 508.044 280.878 514.361 293.655 516.423C306.098 518.551 319.473 518.218 333.181 516.09C325.595 504.32 319.806 493.813 316.479 484.504ZM342.031 416.476C340.501 426.385 340.834 436.359 342.963 446.001C344.76 455.644 348.153 465.552 353.011 475.527C357.602 485.435 363.325 495.675 370.046 505.916C377.965 503.19 385.218 500.197 392.538 497.205C399.525 493.88 406.245 490.888 412.301 487.563C423.879 481.511 433.595 475.793 442.112 469.475C436.057 456.508 432.996 449.925 427.206 436.958C419.288 420.067 409.306 407.167 395.931 398.721C382.556 390.609 368.249 385.754 353.41 385.156C347.022 396.328 343.362 406.502 342.164 416.476H342.031Z" fill="#13130A"/>
<path d="M611.864 274.37C612.795 275.301 613.66 276.166 614.592 277.097C615.523 278.028 616.122 278.892 617.054 279.823C617.986 280.754 618.252 281.353 618.252 281.353C603.679 287.67 593.032 293.987 586.311 299.44C579.324 305.159 575.065 310.612 572.603 316.331C570.474 321.717 569.542 327.768 570.141 333.487C570.74 339.538 571.672 346.122 572.603 353.968C580.189 397.924 587.775 442.211 595.427 486.166C600.618 487.962 603.013 488.893 608.204 490.954C613.66 486.765 616.389 484.903 622.178 481.046L629.165 487.962C621.845 493.681 615.79 498.801 610.932 503.589C607.006 507.512 604.278 510.837 602.415 512.898C600.618 515.292 598.488 517.686 595.76 520.745C578.725 514.694 569.609 512.034 551.376 507.512C556.234 500.264 558.696 496.673 564.152 489.757C555.036 450.59 545.587 411.489 536.47 372.322C534.94 365.406 533.409 359.687 531.879 354.833C530.348 350.311 528.219 346.122 525.224 342.198C522.23 338.275 517.905 334.95 512.448 331.692C506.992 328.433 499.672 324.443 489.957 320.254C493.284 316.663 495.147 314.868 498.474 311.543C504.862 313.937 509.72 315.732 513.979 317.262C517.905 318.791 521.298 320.254 523.694 321.783C526.156 322.98 528.285 324.177 530.082 325.374C531.879 326.305 533.742 327.17 535.539 328.101C539.797 320.852 543.723 314.868 547.716 309.747C551.642 304.627 556.234 299.839 561.424 295.583C566.614 291.394 573.002 287.471 580.588 283.547C588.174 279.956 597.89 276.299 609.734 272.708C610.333 273.04 610.932 273.639 611.864 274.503V274.37Z" fill="#13130A"/>
<path d="M637.416 482.376C643.804 476.059 647.131 472.734 653.852 466.749C652.056 435.429 650.192 403.842 648.396 372.522C667.826 364.675 685.194 358.69 700.699 354.168C715.87 349.646 727.116 346.654 733.504 344.858C742.953 346.986 751.737 351.176 759.323 357.493C766.909 363.81 773.031 371.325 777.556 379.77C782.147 388.215 785.142 397.525 786.672 407.499C788.203 417.474 787.87 427.05 786.34 436.426C784.21 447.265 781.748 456.309 779.02 463.225C775.959 470.14 771.434 475.859 765.645 480.98C759.589 486.1 751.671 490.622 742.222 495.41C732.506 499.931 720.329 505.916 705.756 513.497C679.937 499.067 666.229 493.016 637.35 482.509L637.416 482.376ZM684.861 469.409C701.298 477.522 709.15 482.044 724.388 491.353C729.844 485.302 734.103 479.583 737.164 473.864C740.491 468.478 742.954 463.025 744.484 458.237C746.281 453.117 747.545 448.595 748.144 443.807C748.743 439.285 749.342 434.764 749.941 430.574C750.539 424.257 750.872 418.206 750.273 411.888C749.674 405.571 747.811 399.52 744.817 393.535C741.756 387.484 737.231 381.765 730.843 376.644C724.454 371.524 715.937 367.002 704.691 363.079C696.506 367.002 692.514 369.13 684.662 372.987C684.994 405.504 684.994 437.423 684.994 469.342L684.861 469.409Z" fill="#13130A"/>
<path d="M838.31 528.126C833.718 522.075 829.792 515.159 827.064 506.448C824.336 498.003 822.805 488.095 822.473 477.256C822.14 466.084 823.67 454.048 827.064 440.549C829.526 430.907 832.254 423.392 835.249 417.673C838.31 411.955 842.569 407.433 848.624 404.108C854.679 400.783 862.332 398.389 872.313 396.86C882.029 395.33 895.404 394.133 912.106 393.867C924.55 393.867 930.672 394.2 943.115 394.798C943.115 395.397 943.714 397.192 944.912 400.849C945.844 404.44 947.374 408.962 948.838 415.014C950.368 421.065 951.899 426.185 953.097 430.641C954.294 435.428 956.158 441.147 957.688 447.531C959.219 453.848 960.749 459.301 961.614 463.158C962.812 467.081 963.145 469.475 963.411 469.808C928.143 465.884 895.337 464.089 859.803 464.687C858.273 468.012 857.341 472.534 857.075 478.519C856.742 484.57 857.408 490.555 858.872 496.872C860.402 503.19 862.798 509.241 866.191 514.627C869.519 520.346 874.376 524.27 880.764 526.996C898.664 528.193 907.781 529.39 926.08 532.382C926.679 536.306 926.679 538.101 927.278 541.692C897.467 539.897 882.894 540.163 854.946 542.623C848.291 539.032 843.101 534.178 838.243 528.193L838.31 528.126ZM925.548 453.449C923.751 446.8 922.221 441.413 920.956 437.224C919.759 433.034 918.494 429.111 917.629 425.786C916.698 422.461 915.833 419.136 915.167 416.144C914.568 413.152 913.637 409.494 913.038 405.305C903.921 405.305 896.335 406.834 890.546 410.093C884.757 413.418 879.899 417.341 876.239 421.863C872.58 426.385 869.851 431.505 867.722 436.891C865.592 442.278 864.062 447.132 862.532 451.321C887.152 450.723 899.596 451.321 925.415 453.449H925.548Z" fill="#13130A"/>
<path d="M970.531 593.161C967.47 585.913 965.939 578.133 965.673 569.089C965.407 560.045 966.605 550.137 969.599 539.564C972.328 529.057 977.518 517.62 984.505 505.517C989.695 497.072 994.553 490.489 999.078 485.967C1003.67 481.445 1009.39 478.453 1016.11 476.923C1022.77 475.726 1031.28 475.394 1041.33 477.256C1051.38 478.785 1064.76 481.777 1081.13 486.565C1093.3 490.489 1099.36 492.617 1111.2 497.404V518.75C1111.2 525.068 1110.87 530.52 1110.87 535.308C1110.87 540.429 1110.87 546.48 1110.54 553.063C1110.2 559.713 1110.2 565.432 1110.2 569.621C1110.2 573.811 1109.87 576.271 1109.87 576.537C1077.67 560.577 1044.19 547.943 1009.59 538.633C1007.13 541.36 1004.73 545.283 1002.94 551.002C1000.81 556.721 999.876 562.772 999.278 569.355C998.945 576.005 999.61 582.322 1001.07 588.906C1002.87 595.223 1006.26 600.676 1011.99 605.131C1029.29 612.047 1037.81 615.97 1055.17 624.681C1054.57 628.605 1054.24 630.4 1053.64 634.324C1024.76 622.554 1010.46 618.364 982.243 612.047C977.052 606.328 973.126 600.277 970.398 593.095L970.531 593.161ZM1077.53 548.275V519.083C1077.53 515.492 1077.53 512.167 1077.86 509.175C1078.2 505.85 1078.46 502.259 1078.8 498.003C1069.68 495.011 1062.09 494.412 1055.37 495.609C1048.72 496.806 1042.93 499.2 1038.07 502.525C1033.21 505.85 1028.96 509.773 1025.3 514.295C1021.64 518.817 1018.64 523.006 1016.18 526.664C1040.47 533.579 1052.65 538.101 1077.6 548.342L1077.53 548.275ZM1156.25 484.171C1126.18 470.007 1111.27 464.289 1081.19 454.646C1080.59 452.851 1080.26 451.92 1079.4 450.457C1105.21 450.124 1118.32 450.789 1145.34 453.449C1154.12 460.964 1158.71 464.621 1167.23 472.401C1162.64 476.923 1160.58 479.317 1156.32 484.171H1156.25Z" fill="#13130A"/>
</svg>
