<svg width="1319" height="1496" viewBox="0 0 1319 1496" fill="none" xmlns="http://www.w3.org/2000/svg">
<g clip-path="url(#clip0_146_127)">
<path d="M370.398 580.497V915.504L659.59 748.091L370.398 580.497Z" fill="white"/>
<path d="M659.59 1083.1V748.091L370.398 915.503L659.59 1083.1Z" fill="white"/>
<path d="M659.59 412.902V748.091L948.602 580.496L659.59 412.902Z" fill="#4A4A49"/>
<path d="M81.3863 412.903L370.398 580.497V245.309L81.3863 412.903Z" fill="#4A4A49"/>
<path d="M370.398 245.309V580.497L659.59 412.903L370.398 245.309Z" fill="#4A4A49"/>
<path d="M659.59 748.091V412.902L370.398 580.496L659.59 748.091Z" fill="#4A4A49"/>
<path d="M948.602 915.503V1250.69L1237.61 1083.1L948.602 915.503Z" fill="black"/>
<path d="M1237.61 1083.1V748.091L948.602 915.503L1237.61 1083.1Z" fill="black"/>
<path d="M948.602 580.497V245.309L659.59 412.903L948.602 580.497Z" fill="#2E2D2C"/>
<path d="M659.59 77.7144V412.903L948.602 245.308L659.59 77.7144Z" fill="#2E2D2C"/>
<path d="M659.59 412.903V77.7144L370.398 245.308L659.59 412.903Z" fill="#2E2D2C"/>
<path d="M948.602 245.309V580.497L1237.61 412.903L948.602 245.309Z" fill="#2E2D2C"/>
<path d="M948.602 580.496V915.503L1237.61 748.09L948.602 580.496Z" fill="#E6007E"/>
<path d="M1237.61 748.091V412.902L948.602 580.496L1237.61 748.091Z" fill="#E6007E"/>
<path d="M948.602 915.503L659.59 748.091V1083.1L948.602 915.503Z" fill="#009FE3"/>
<path d="M948.602 915.504V580.497L659.59 748.091L948.602 915.504Z" fill="#009FE3"/>
<path d="M659.59 1083.1L948.602 1250.69V915.503L659.59 1083.1Z" fill="#FFED00"/>
<path d="M948.602 1250.69L659.59 1083.1V1418.28L948.602 1250.69Z" fill="#FFED00"/>
<path d="M81.3863 1083.1L370.398 1250.69V915.503L81.3863 1083.1Z" fill="#2E2D2C"/>
<path d="M370.398 915.503V1250.69L659.59 1083.1L370.398 915.503Z" fill="#2E2D2C"/>
<path d="M659.59 1418.28V1083.1L370.398 1250.69L659.59 1418.28Z" fill="#2E2D2C"/>
<path d="M81.3863 748.09L370.398 915.503V580.496L81.3863 748.09Z" fill="#3C3C3B"/>
<path d="M370.398 580.496L81.3863 412.902V748.091L370.398 580.496Z" fill="#3C3C3B"/>
<path d="M370.398 915.503L81.3863 748.091V1083.1L370.398 915.503Z" fill="#3C3C3B"/>
</g>
<defs>
<clipPath id="clip0_146_127">
<rect width="1319" height="1496" fill="white"/>
</clipPath>
</defs>
</svg>
