<svg width="1380" height="1953" viewBox="0 0 1380 1953" fill="none" xmlns="http://www.w3.org/2000/svg">
<path d="M1355.57 1930.07H966.492L1354.53 1541.09L1355.57 1930.07Z" fill="#D32D16"/>
<path d="M567.917 1929.15C567.917 1929.15 380.678 1680.32 445.453 1314.52L726.999 1930.07L567.948 1929.15H567.917Z" fill="#F9F8FC"/>
<path d="M414.333 478.579C414.333 478.579 335.571 434.036 328.547 305.826C321.522 177.616 353.345 43.834 422.426 100.959C491.507 158.084 610.032 421.484 610.032 421.484L414.302 478.548L414.333 478.579Z" fill="#ED6D3A"/>
<path d="M440.841 442.639C440.841 442.639 435.375 451.241 434.611 301.173C433.817 151.105 375.12 148.166 400.834 88.7754C400.834 88.7754 535.179 119.052 588.99 329.307L440.841 447.323" fill="black"/>
<path d="M797.485 349.236L796.996 352.328C787.009 339.929 761.417 324.592 745.536 324.592H590.12C565.291 324.592 541.47 334.48 523.909 352.083L396.162 480.14C392.13 484.181 395.001 491.069 400.682 491.069H499.355L636.968 362.216L806.036 360.134L797.454 349.205L797.485 349.236Z" fill="#F9F8FC"/>
<path d="M557.809 995.245C557.809 995.245 446.919 1028.34 375.364 950.702C375.364 950.702 361.407 1021.05 306.405 969.468C251.403 917.884 464.754 767.02 464.754 767.02L564.069 687.302L584.348 483.292L843.997 354.317L1038.93 155.787C1038.93 155.787 1090.39 201.891 1080.25 359.001C1070.11 516.11 1021.01 653.688 1021.01 653.688C1021.01 653.688 1087.12 1083.6 1355.45 1257.11V1560.37L986.678 1930.03H722.907L653.765 1779.23C653.765 1779.23 767.617 1651.05 801.913 1452.52L614.765 1483.78L496.241 1218.02C496.241 1218.02 564.863 1060.15 557.839 995.245H557.809Z" fill="black"/>
<path d="M402.636 759.184H374.662C374.662 759.184 378.571 741.826 433.298 687.456C471.778 649.219 515.419 581.196 456.692 558.878C397.964 536.561 562.206 353.767 562.206 353.767H781.054C781.054 353.767 817.427 294.774 837.706 241.659C857.984 188.514 950.092 -62.702 1058.6 186.861L743.887 510.049V564.174H594.456C583.859 564.174 573.75 568.675 566.665 576.573L402.636 759.184Z" fill="#ED6D3A"/>
<path d="M290.861 854.301C290.861 854.301 236.988 905.364 310.192 973.112C310.192 973.112 303.871 925.539 322.561 918.253C341.282 910.967 330.929 901.323 336.151 895.599C341.373 889.874 346.993 903.313 351.177 885.067C351.177 885.067 322.591 910.079 290.891 854.331L290.861 854.301Z" fill="#ED6D3A"/>
<path d="M436.169 1300.86C436.169 1300.86 486.773 1240.74 496.21 1218.02L619.407 1476.74L812.785 1442.36C812.785 1442.36 783.925 1636.6 732.068 1713.96C680.212 1791.35 648.054 1777.95 648.054 1777.95L436.138 1300.86H436.169Z" fill="#6C66AC"/>
<path d="M683.327 1380.58L1011.6 1051.51V945.988L686.076 1272.33L683.327 1380.58Z" fill="#D31A2B"/>
<path d="M396.65 592.86C396.65 592.86 408.286 593.87 408.286 576.359H468.633C468.633 576.359 502.562 595.37 459.654 622.862C459.654 622.862 456.661 621.851 451.164 643.373C445.667 664.894 432.718 673.374 416.745 649.863C400.773 626.352 396.62 592.86 396.62 592.86H396.65Z" fill="black"/>
<path d="M670.409 971.398L979.685 666.332H787.834V464.129L743.124 507.845V616.554C743.124 616.554 708.828 632.963 682.838 668.873C656.849 704.783 607.833 694.313 596.533 595.033C596.533 595.033 623.042 587.778 624.08 564.205H595.708C584.226 564.205 573.231 568.705 565.016 576.757L380.8 757.592L445.453 858.494C445.453 858.494 563.367 838.106 670.409 971.428V971.398Z" fill="#D31A2B"/>
<path d="M467.9 791.727C475.626 834.861 445.117 879.925 391.886 894.13C338.655 908.334 288.051 885.037 275.133 843.188C255.282 778.746 297.915 754.99 351.146 740.786C404.377 726.581 458.005 736.561 467.9 791.727Z" fill="black"/>
<path d="M288.784 823.533C291.899 842.575 304.023 858.249 322.561 864.188C320.209 863.821 317.797 863.484 315.476 862.841C298.679 858.341 287.471 840.493 288.753 823.564L288.784 823.533Z" fill="white"/>
<path d="M366.752 885.036C398.88 882.036 443.285 870.862 445.453 831.891C445.667 836.299 445.361 840.769 444.323 845.146C435.192 877.291 396.04 885.801 366.752 885.036Z" fill="white"/>
<path d="M671.813 897.648C684.946 911.976 691.054 931.752 693.1 950.824C694.138 960.498 695.909 970.693 692.764 980.091C691.359 984.806 689.16 989.275 686.747 993.592C683.999 997.816 680.853 1001.83 676.669 1005.32L674.623 1004.67C671.752 994.877 671.569 986 671.691 976.479C671.814 965.58 676.608 955.447 676.486 944.518C677.25 929.119 676.059 913.476 670.103 898.965L671.813 897.679V897.648Z" fill="black"/>
<path d="M640.816 648.453C654.461 648.453 665.522 637.365 665.522 623.686C665.522 610.008 654.461 598.92 640.816 598.92C627.171 598.92 616.109 610.008 616.109 623.686C616.109 637.365 627.171 648.453 640.816 648.453Z" fill="white"/>
<path d="M431.618 635.105C441.587 635.105 449.667 627.005 449.667 617.013C449.667 607.02 441.587 598.92 431.618 598.92C421.65 598.92 413.569 607.02 413.569 617.013C413.569 627.005 421.65 635.105 431.618 635.105Z" fill="white"/>
<path d="M670.623 587.992H612.872V615.177H670.623V587.992Z" fill="black"/>
<path d="M454.004 583.768H408.042V614.045H454.004V583.768Z" fill="black"/>
</svg>
