<svg width="1080" height="130" viewBox="0 0 1080 130" fill="none" xmlns="http://www.w3.org/2000/svg">
<path d="M381.03 97V27H418.43C428.097 27 435.23 28.7333 439.83 32.2C444.43 35.6 446.73 39.9667 446.73 45.3C446.73 48.8333 445.73 52 443.73 54.8C441.797 57.5333 438.963 59.7 435.23 61.3C431.497 62.9 426.897 63.7 421.43 63.7L423.43 58.3C428.897 58.3 433.597 59.0667 437.53 60.6C441.53 62.1333 444.597 64.3667 446.73 67.3C448.93 70.1667 450.03 73.6333 450.03 77.7C450.03 83.7667 447.497 88.5 442.43 91.9C437.43 95.3 430.097 97 420.43 97H381.03ZM404.23 80.5H418.43C421.03 80.5 422.963 80.0333 424.23 79.1C425.563 78.1667 426.23 76.8 426.23 75C426.23 73.2 425.563 71.8333 424.23 70.9C422.963 69.9667 421.03 69.5 418.43 69.5H402.63V53.9H415.23C417.897 53.9 419.83 53.4667 421.03 52.6C422.297 51.6667 422.93 50.3667 422.93 48.7C422.93 46.9667 422.297 45.6667 421.03 44.8C419.83 43.9333 417.897 43.5 415.23 43.5H404.23V80.5ZM497.174 98.6C491.44 98.6 486.14 97.7 481.274 95.9C476.474 94.1 472.307 91.5667 468.774 88.3C465.24 84.9667 462.474 81.0667 460.474 76.6C458.54 72.1333 457.574 67.2667 457.574 62C457.574 56.6667 458.54 51.8 460.474 47.4C462.474 42.9333 465.24 39.0667 468.774 35.8C472.307 32.4667 476.474 29.9 481.274 28.1C486.14 26.3 491.407 25.4 497.074 25.4C502.807 25.4 508.074 26.3 512.874 28.1C517.674 29.9 521.84 32.4667 525.374 35.8C528.907 39.0667 531.64 42.9333 533.574 47.4C535.574 51.8 536.574 56.6667 536.574 62C536.574 67.2667 535.574 72.1333 533.574 76.6C531.64 81.0667 528.907 84.9667 525.374 88.3C521.84 91.5667 517.674 94.1 512.874 95.9C508.074 97.7 502.84 98.6 497.174 98.6ZM497.074 79.5C499.274 79.5 501.307 79.1 503.174 78.3C505.107 77.5 506.774 76.3667 508.174 74.9C509.64 73.3667 510.774 71.5333 511.574 69.4C512.374 67.2 512.774 64.7333 512.774 62C512.774 59.2667 512.374 56.8333 511.574 54.7C510.774 52.5 509.64 50.6667 508.174 49.2C506.774 47.6667 505.107 46.5 503.174 45.7C501.307 44.9 499.274 44.5 497.074 44.5C494.874 44.5 492.807 44.9 490.874 45.7C489.007 46.5 487.34 47.6667 485.874 49.2C484.474 50.6667 483.374 52.5 482.574 54.7C481.774 56.8333 481.374 59.2667 481.374 62C481.374 64.7333 481.774 67.2 482.574 69.4C483.374 71.5333 484.474 73.3667 485.874 74.9C487.34 76.3667 489.007 77.5 490.874 78.3C492.807 79.1 494.874 79.5 497.074 79.5ZM583.939 98.6C578.206 98.6 572.906 97.7 568.039 95.9C563.239 94.1 559.073 91.5667 555.539 88.3C552.006 84.9667 549.239 81.0667 547.239 76.6C545.306 72.1333 544.339 67.2667 544.339 62C544.339 56.6667 545.306 51.8 547.239 47.4C549.239 42.9333 552.006 39.0667 555.539 35.8C559.073 32.4667 563.239 29.9 568.039 28.1C572.906 26.3 578.173 25.4 583.839 25.4C589.573 25.4 594.839 26.3 599.639 28.1C604.439 29.9 608.606 32.4667 612.139 35.8C615.673 39.0667 618.406 42.9333 620.339 47.4C622.339 51.8 623.339 56.6667 623.339 62C623.339 67.2667 622.339 72.1333 620.339 76.6C618.406 81.0667 615.673 84.9667 612.139 88.3C608.606 91.5667 604.439 94.1 599.639 95.9C594.839 97.7 589.606 98.6 583.939 98.6ZM583.839 79.5C586.039 79.5 588.073 79.1 589.939 78.3C591.873 77.5 593.539 76.3667 594.939 74.9C596.406 73.3667 597.539 71.5333 598.339 69.4C599.139 67.2 599.539 64.7333 599.539 62C599.539 59.2667 599.139 56.8333 598.339 54.7C597.539 52.5 596.406 50.6667 594.939 49.2C593.539 47.6667 591.873 46.5 589.939 45.7C588.073 44.9 586.039 44.5 583.839 44.5C581.639 44.5 579.573 44.9 577.639 45.7C575.773 46.5 574.106 47.6667 572.639 49.2C571.239 50.6667 570.139 52.5 569.339 54.7C568.539 56.8333 568.139 59.2667 568.139 62C568.139 64.7333 568.539 67.2 569.339 69.4C570.139 71.5333 571.239 73.3667 572.639 74.9C574.106 76.3667 575.773 77.5 577.639 78.3C579.573 79.1 581.639 79.5 583.839 79.5ZM655.005 82L653.705 56.1L680.105 27H705.805L676.205 59.6L663.105 73L655.005 82ZM633.905 97V27H657.105V97H633.905ZM679.905 97L659.305 69.8L674.605 53.6L707.205 97H679.905Z" fill="black"/>
<path d="M662.539 124V123.46L666.979 119.05C667.399 118.63 667.714 118.265 667.924 117.955C668.134 117.635 668.274 117.34 668.344 117.07C668.424 116.8 668.464 116.535 668.464 116.275C668.464 115.615 668.239 115.095 667.789 114.715C667.339 114.325 666.679 114.13 665.809 114.13C665.149 114.13 664.569 114.23 664.069 114.43C663.579 114.63 663.154 114.935 662.794 115.345L662.254 114.865C662.654 114.405 663.159 114.05 663.769 113.8C664.389 113.55 665.089 113.425 665.869 113.425C666.559 113.425 667.154 113.54 667.654 113.77C668.164 113.99 668.554 114.31 668.824 114.73C669.104 115.14 669.244 115.63 669.244 116.2C669.244 116.54 669.194 116.875 669.094 117.205C669.004 117.525 668.834 117.865 668.584 118.225C668.344 118.585 667.994 118.995 667.534 119.455L663.364 123.61L663.109 123.31H669.754V124H662.539ZM675.267 124.075C674.467 124.075 673.757 123.86 673.137 123.43C672.517 123 672.032 122.39 671.682 121.6C671.332 120.8 671.157 119.85 671.157 118.75C671.157 117.65 671.332 116.705 671.682 115.915C672.032 115.115 672.517 114.5 673.137 114.07C673.757 113.64 674.467 113.425 675.267 113.425C676.077 113.425 676.787 113.64 677.397 114.07C678.017 114.5 678.502 115.115 678.852 115.915C679.202 116.705 679.377 117.65 679.377 118.75C679.377 119.85 679.202 120.8 678.852 121.6C678.502 122.39 678.017 123 677.397 123.43C676.787 123.86 676.077 124.075 675.267 124.075ZM675.267 123.37C675.937 123.37 676.522 123.19 677.022 122.83C677.522 122.46 677.912 121.93 678.192 121.24C678.472 120.55 678.612 119.72 678.612 118.75C678.612 117.77 678.472 116.94 678.192 116.26C677.912 115.57 677.522 115.045 677.022 114.685C676.522 114.315 675.937 114.13 675.267 114.13C674.607 114.13 674.022 114.315 673.512 114.685C673.012 115.045 672.622 115.57 672.342 116.26C672.062 116.94 671.922 117.77 671.922 118.75C671.922 119.72 672.062 120.55 672.342 121.24C672.622 121.93 673.012 122.46 673.512 122.83C674.022 123.19 674.607 123.37 675.267 123.37ZM680.82 124V123.46L685.26 119.05C685.68 118.63 685.995 118.265 686.205 117.955C686.415 117.635 686.555 117.34 686.625 117.07C686.705 116.8 686.745 116.535 686.745 116.275C686.745 115.615 686.52 115.095 686.07 114.715C685.62 114.325 684.96 114.13 684.09 114.13C683.43 114.13 682.85 114.23 682.35 114.43C681.86 114.63 681.435 114.935 681.075 115.345L680.535 114.865C680.935 114.405 681.44 114.05 682.05 113.8C682.67 113.55 683.37 113.425 684.15 113.425C684.84 113.425 685.435 113.54 685.935 113.77C686.445 113.99 686.835 114.31 687.105 114.73C687.385 115.14 687.525 115.63 687.525 116.2C687.525 116.54 687.475 116.875 687.375 117.205C687.285 117.525 687.115 117.865 686.865 118.225C686.625 118.585 686.275 118.995 685.815 119.455L681.645 123.61L681.39 123.31H688.035V124H680.82ZM688.907 121.09V120.535L694.607 113.5H695.462L689.777 120.535L689.357 120.415H697.847V121.09H688.907ZM694.892 124V121.09L694.907 120.415V117.85H695.642V124H694.892Z" fill="black"/>
</svg>
