<svg width="140" height="199" viewBox="0 0 140 199" fill="none" xmlns="http://www.w3.org/2000/svg">
<path d="M137.521 196.208H98.0499L137.416 156.747L137.521 196.208Z" fill="#D32D16"/>
<path d="M57.6148 196.115C57.6148 196.115 38.6195 170.871 45.1909 133.761L73.7535 196.208L57.6179 196.115H57.6148Z" fill="#F9F8FC"/>
<path d="M42.0338 48.9558C42.0338 48.9558 34.0434 44.4369 33.3308 31.4301C32.6182 18.4233 35.8466 4.85123 42.8548 10.6465C49.863 16.4418 61.8873 43.1636 61.8873 43.1636L42.0307 48.9527L42.0338 48.9558Z" fill="#ED6D3A"/>
<path d="M44.723 45.3094C44.723 45.3094 44.1685 46.1821 44.091 30.9578C44.0104 15.7334 38.0556 15.4353 40.6644 9.41016C40.6644 9.41016 54.2935 12.4817 59.7526 33.8119L44.723 45.7845" fill="black"/>
<path d="M80.9043 35.8336L80.8547 36.1473C79.8416 34.8895 77.2452 33.3335 75.6342 33.3335H59.8672C57.3484 33.3335 54.9317 34.3366 53.1503 36.1224L40.1903 49.1137C39.7814 49.5237 40.0726 50.2225 40.6489 50.2225H50.6593L64.6199 37.1504L81.7718 36.9393L80.9012 35.8305L80.9043 35.8336Z" fill="#F9F8FC"/>
<path d="M56.5893 101.371C56.5893 101.371 45.3396 104.728 38.0804 96.852C38.0804 96.852 36.6645 103.989 31.0846 98.7559C25.5047 93.5227 47.149 78.2176 47.149 78.2176L57.2244 70.1303L59.2816 49.4337L85.6228 36.3492L105.399 16.2085C105.399 16.2085 110.619 20.8857 109.591 36.8244C108.562 52.763 103.58 66.7202 103.58 66.7202C103.58 66.7202 110.288 110.334 137.509 127.937V158.703L100.098 196.205H73.3383L66.3239 180.906C66.3239 180.906 77.8742 167.902 81.3535 147.761L62.3675 150.932L50.3432 123.971C50.3432 123.971 57.305 107.955 56.5924 101.371H56.5893Z" fill="black"/>
<path d="M40.8471 77.4227H38.0092C38.0092 77.4227 38.4057 75.6618 43.9578 70.146C47.8615 66.2669 52.2889 59.366 46.331 57.1019C40.3731 54.8378 57.0354 36.2935 57.0354 36.2935H79.2374C79.2374 36.2935 82.9274 30.3087 84.9846 24.9203C87.0418 19.5287 96.3861 -5.95695 107.394 19.361L75.4668 52.1483V57.6392H60.3072C59.2321 57.6392 58.2066 58.0957 57.4878 58.897L40.8471 77.4227Z" fill="#ED6D3A"/>
<path d="M29.5076 87.0723C29.5076 87.0723 24.0423 92.2526 31.4688 99.1256C31.4688 99.1256 30.8275 94.2993 32.7236 93.5602C34.6228 92.821 33.5725 91.8427 34.1023 91.2619C34.6321 90.6811 35.2022 92.0445 35.6266 90.1935C35.6266 90.1935 32.7267 92.7309 29.5107 87.0754L29.5076 87.0723Z" fill="#ED6D3A"/>
<path d="M44.249 132.376C44.249 132.376 49.3828 126.276 50.3401 123.972L62.8384 150.218L82.4565 146.731C82.4565 146.731 79.5286 166.436 74.2678 174.285C69.007 182.136 65.7446 180.776 65.7446 180.776L44.2459 132.376H44.249Z" fill="#6C66AC"/>
<path d="M69.323 140.463L102.626 107.079V96.374L69.6019 129.481L69.323 140.463Z" fill="#D31A2B"/>
<path d="M40.2399 60.5495C40.2399 60.5495 41.4203 60.652 41.4203 58.8755H47.5424C47.5424 58.8755 50.9846 60.8041 46.6315 63.5931C46.6315 63.5931 46.3279 63.4906 45.7702 65.6739C45.2126 67.8573 43.8989 68.7176 42.2785 66.3324C40.6581 63.9472 40.2368 60.5495 40.2368 60.5495H40.2399Z" fill="black"/>
<path d="M68.0125 98.9518L99.3883 68.0031H79.9252V47.4897L75.3894 51.9247V62.9532C75.3894 62.9532 71.9101 64.6179 69.2735 68.2609C66.6369 71.9039 61.6642 70.8418 60.5178 60.7699C60.5178 60.7699 63.2071 60.0338 63.3124 57.6424H60.4342C59.2692 57.6424 58.1539 58.0989 57.3205 58.9157L38.6319 77.2613L45.1909 87.4978C45.1909 87.4978 57.1532 85.4294 68.0125 98.9549V98.9518Z" fill="#D31A2B"/>
<path d="M47.4681 80.7243C48.2519 85.1003 45.1568 89.672 39.7566 91.113C34.3563 92.5541 29.2226 90.1906 27.912 85.9451C25.8982 79.4075 30.2233 76.9975 35.6235 75.5564C41.0238 74.1153 46.4643 75.1278 47.4681 80.7243Z" fill="black"/>
<path d="M29.2969 83.9512C29.613 85.8829 30.843 87.4731 32.7236 88.0756C32.485 88.0383 32.2403 88.0042 32.0048 87.9389C30.3008 87.4824 29.1637 85.6717 29.2938 83.9543L29.2969 83.9512Z" fill="white"/>
<path d="M37.2067 90.1904C40.4661 89.886 44.9709 88.7524 45.1909 84.7988C45.2126 85.2461 45.1816 85.6995 45.0762 86.1436C44.1499 89.4046 40.1779 90.268 37.2067 90.1904Z" fill="white"/>
<path d="M68.155 91.4702C69.4872 92.9237 70.1069 94.93 70.3145 96.8649C70.4198 97.8463 70.5995 98.8805 70.2804 99.834C70.1379 100.312 69.9148 100.766 69.67 101.204C69.3912 101.632 69.0721 102.039 68.6476 102.393L68.44 102.328C68.1488 101.334 68.1302 100.433 68.1426 99.4675C68.155 98.3618 68.6414 97.3338 68.629 96.2251C68.7065 94.6629 68.5857 93.0759 67.9815 91.6038L68.155 91.4733V91.4702Z" fill="black"/>
<path d="M65.0103 66.1896C66.3946 66.1896 67.5168 65.0647 67.5168 63.6771C67.5168 62.2895 66.3946 61.1646 65.0103 61.1646C63.626 61.1646 62.5038 62.2895 62.5038 63.6771C62.5038 65.0647 63.626 66.1896 65.0103 66.1896Z" fill="white"/>
<path d="M43.7874 64.8355C44.7986 64.8355 45.6184 64.0138 45.6184 63C45.6184 61.9863 44.7986 61.1646 43.7874 61.1646C42.7761 61.1646 41.9563 61.9863 41.9563 63C41.9563 64.0138 42.7761 64.8355 43.7874 64.8355Z" fill="white"/>
<path d="M68.0342 60.0557H62.1754V62.8136H68.0342V60.0557Z" fill="black"/>
<path d="M46.0584 59.627H41.3955V62.6985H46.0584V59.627Z" fill="black"/>
</svg>
