<svg width="112" height="127" viewBox="0 0 112 127" fill="none" xmlns="http://www.w3.org/2000/svg">
<g clip-path="url(#clip0_26_9)">
<path d="M110 90.7088V36.272C110 33.748 108.666 31.4153 106.475 30.1533L59.5149 2.94452C57.3431 1.68255 54.6569 1.68255 52.4851 2.94452L5.52474 30.1725C3.35295 31.4344 2.00034 33.7672 2.00034 36.2911V90.7279C2.00034 93.2518 3.3339 95.5845 5.52474 96.8465L52.4851 124.055C54.6569 125.317 57.3431 125.317 59.5149 124.055L106.475 96.8465C108.647 95.5845 110 93.2518 110 90.7279V90.7088Z" fill="white" stroke="black" stroke-width="2.1" stroke-miterlimit="10"/>
<path d="M31.453 49.2739V77.7256L56.0095 91.9514V63.4998L31.453 49.2739Z" fill="white"/>
<path d="M56.0095 35.0481L31.453 20.8223L6.91547 35.0481L31.453 49.2739L56.0095 63.4998L80.547 49.2739L56.0095 35.0481Z" fill="#4A4A49"/>
<path d="M80.547 77.7258V106.178L105.104 91.9517V63.5L80.547 77.7258Z" fill="black"/>
<path d="M80.547 20.8225L56.0095 6.59668L31.453 20.8225L56.0095 35.0484L80.547 49.2742L105.104 35.0484L80.547 20.8225Z" fill="#2E2D2C"/>
<path d="M80.547 49.2742V77.7259L105.104 63.5V35.0483L80.547 49.2742Z" fill="#E6007E"/>
<path d="M56.0095 63.4998V91.9514L80.547 77.7256V49.2739L56.0095 63.4998Z" fill="#009FE3"/>
<path d="M56.0095 91.9519V120.404L80.547 106.178V77.7261L56.0095 91.9519Z" fill="#FFED00"/>
<path d="M31.453 77.7261L6.91547 91.9519L31.453 106.178L56.0095 120.404V91.9519L31.453 77.7261Z" fill="#2E2D2C"/>
<path d="M6.91547 35.0483V63.5V91.9517L31.453 77.7258V49.2742L6.91547 35.0483Z" fill="#3C3C3B"/>
</g>
<defs>
<clipPath id="clip0_26_9">
<rect width="112" height="127" fill="white"/>
</clipPath>
</defs>
</svg>
